<svg width="32" height="32" viewBox="0 0 32 32" fill="none" xmlns="http://www.w3.org/2000/svg">
<path d="M26.6665 5.33325H5.33317C3.8625 5.33325 2.6665 6.52925 2.6665 7.99992V23.9999C2.6665 25.4706 3.8625 26.6666 5.33317 26.6666H26.6665C28.1372 26.6666 29.3332 25.4706 29.3332 23.9999V7.99992C29.3332 6.52925 28.1372 5.33325 26.6665 5.33325ZM26.6665 7.99992V8.68125L15.9998 16.9786L5.33317 8.68259V7.99992H26.6665ZM5.33317 23.9999V12.0586L15.1812 19.7186C15.4146 19.902 15.7029 20.0017 15.9998 20.0017C16.2967 20.0017 16.585 19.902 16.8185 19.7186L26.6665 12.0586L26.6692 23.9999H5.33317Z" fill="black"/>
</svg>
