<svg width="32" height="32" viewBox="0 0 32 32" fill="none" xmlns="http://www.w3.org/2000/svg">
<path d="M16.0002 18.6665C18.9416 18.6665 21.3336 16.2745 21.3336 13.3332C21.3336 10.3918 18.9416 7.99984 16.0002 7.99984C13.0589 7.99984 10.6669 10.3918 10.6669 13.3332C10.6669 16.2745 13.0589 18.6665 16.0002 18.6665ZM16.0002 10.6665C17.4709 10.6665 18.6669 11.8625 18.6669 13.3332C18.6669 14.8038 17.4709 15.9998 16.0002 15.9998C14.5296 15.9998 13.3336 14.8038 13.3336 13.3332C13.3336 11.8625 14.5296 10.6665 16.0002 10.6665ZM15.2269 29.0852C15.4526 29.2463 15.723 29.333 16.0003 29.333C16.2776 29.333 16.5479 29.2463 16.7736 29.0852C17.1789 28.7985 26.7056 21.9198 26.6669 13.3332C26.6669 7.45184 21.8816 2.6665 16.0003 2.6665C10.1189 2.6665 5.33361 7.45184 5.33361 13.3265C5.29495 21.9198 14.8216 28.7985 15.2269 29.0852ZM16.0003 5.33317C20.4123 5.33317 24.0003 8.92117 24.0003 13.3398C24.0283 19.2572 18.1496 24.5705 16.0003 26.3132C13.8523 24.5692 7.97228 19.2545 8.00028 13.3332C8.00028 8.92117 11.5883 5.33317 16.0003 5.33317Z" fill="black"/>
<path d="M16.0002 18.6665C18.9416 18.6665 21.3336 16.2745 21.3336 13.3332C21.3336 10.3918 18.9416 7.99984 16.0002 7.99984C13.0589 7.99984 10.6669 10.3918 10.6669 13.3332C10.6669 16.2745 13.0589 18.6665 16.0002 18.6665ZM16.0002 10.6665C17.4709 10.6665 18.6669 11.8625 18.6669 13.3332C18.6669 14.8038 17.4709 15.9998 16.0002 15.9998C14.5296 15.9998 13.3336 14.8038 13.3336 13.3332C13.3336 11.8625 14.5296 10.6665 16.0002 10.6665ZM15.2269 29.0852C15.4526 29.2463 15.723 29.333 16.0003 29.333C16.2776 29.333 16.5479 29.2463 16.7736 29.0852C17.1789 28.7985 26.7056 21.9198 26.6669 13.3332C26.6669 7.45184 21.8816 2.6665 16.0003 2.6665C10.1189 2.6665 5.33361 7.45184 5.33361 13.3265C5.29495 21.9198 14.8216 28.7985 15.2269 29.0852ZM16.0003 5.33317C20.4123 5.33317 24.0003 8.92117 24.0003 13.3398C24.0283 19.2572 18.1496 24.5705 16.0003 26.3132C13.8523 24.5692 7.97228 19.2545 8.00028 13.3332C8.00028 8.92117 11.5883 5.33317 16.0003 5.33317Z" fill="black"/>
</svg>
