<svg width="228" height="86" viewBox="0 0 228 86" fill="none" xmlns="http://www.w3.org/2000/svg">
<path d="M5.67572 64.8477L5.69164 66.146L5.7195 68.6587L5.73144 69.8965L5.75135 72.237L5.75931 73.3864L5.76726 75.5082L5.77523 76.5366V78.3885L5.7792 79.2727L5.77523 80.7942L5.77125 81.5108L5.75931 82.6509L5.75135 83.1674L5.73542 83.8747L5.72747 84.0236L5.71552 84.2283L5.69562 84.3912L5.66776 84.4749L5.42099 84.6238L5.27372 84.6936L4.83193 84.81L4.35431 84.9216L3.09657 85.038L2.46771 85.0752L1.30948 85.024L1.05077 84.9961L0.640801 84.9123L0.461701 84.8612L0.266677 84.7169L0.254737 84.7076L0.238813 84.5866L0.230844 84.5122L0.210948 84.2655L0.195024 83.9864L0.163188 83.079L0.147264 82.5718L0.115428 81.2503L0.103488 80.5383L0.0796082 78.8492L0.0676682 77.9651L0.043776 75.9642L0.0358201 74.9266L0.019896 72.6651L0.0159241 71.5111L0.00398406 69.0449L0 65.1734V45.9418H5.44885M32.9399 65.3456L32.8364 84.796L30.3448 84.9356L29.903 84.9589L29.1985 84.9635L28.8721 84.9589L28.3866 84.8984L28.1716 84.8612L27.8851 84.7355L27.7617 84.6657L27.6542 84.4703L27.6462 84.447L27.6343 84.3074L27.6264 84.2237L27.6144 83.9631L27.6025 83.6699L27.5826 82.7486L27.5746 82.2321L27.5587 80.9013L27.5507 80.1893L27.5428 78.5049L27.5388 77.6254L27.5348 75.6385L27.5308 74.6148L27.5348 72.3859V71.2412L27.5428 68.8169L27.5587 65.0199L27.6622 46.1744L30.3528 46.0348L33.0434 45.8999M71.9614 81.1618L71.9853 81.7621L71.9933 82.6462L71.9853 83.0417L71.9177 83.5908L71.8739 83.8328L71.7147 84.1539L71.3445 84.4982L71.3008 84.5308L70.9067 84.582L70.6639 84.6099L69.9156 84.6564L69.5017 84.6797L68.447 84.7169L67.8858 84.7355L66.5763 84.7681L65.8917 84.7867L64.3753 84.8146L63.5991 84.8239L61.9274 84.8425L60.2239 84.8612L56.5662 84.8751L54.7273 84.8798L51.0974 84.8658L50.2098 84.8612L48.5063 84.8425L47.6705 84.8332L46.1142 84.81L45.354 84.8007L43.9888 84.7681L43.3361 84.7495L42.2137 84.7122L41.6883 84.689L40.8604 84.6424L40.4863 84.6192L40.0007 84.5633L38.4086 84.3307V78.2815H71.842M21.3815 75.8246L21.8671 76.3923L22.7108 77.3881L23.1089 77.8627L23.7895 78.691L24.1079 79.0819L24.6412 79.7612L24.888 80.087L25.286 80.636L25.4691 80.9013L25.7517 81.348L25.8751 81.562L26.0542 81.925L26.2691 82.8091V83.1767L26.1258 83.7258L26.0781 83.8421L25.9626 84.0003L25.7636 84.098H25.7278L25.5766 84.0003L25.489 83.9352L25.2383 83.7118L25.1029 83.5862L24.7686 83.2605L24.5935 83.0836L24.1835 82.6648L23.7616 82.2181L22.7506 81.1107L21.0949 79.2122L20.5217 78.5421L19.4471 77.3137L18.9297 76.732L18.0381 75.7595L17.8312 75.5408L17.469 75.1639L17.2978 74.9871L17.0152 74.7125L16.8839 74.5869L16.6968 74.424L16.5296 74.3263H16.5018L16.3625 74.4333L16.2749 74.4985L16.0281 74.7311L15.8928 74.8614L15.5545 75.2058L15.3754 75.3919L14.9575 75.8339L14.5197 76.2993L13.4689 77.4672L11.7296 79.4588L11.1206 80.1661L9.9942 81.4271L9.45689 82.0273L8.53747 82.9906L8.32253 83.2093L7.95635 83.5722L7.78123 83.7397L7.50262 83.991L7.37127 84.1027L7.19217 84.2283L7.11256 84.2748L7.0449 84.2702L6.96928 84.1771L6.84987 83.6979L6.76629 82.7812V82.6741L6.82599 82.4136L6.86978 82.274L7.02102 81.9389L7.1046 81.7621L7.35536 81.3433L7.49068 81.12L7.84491 80.6035L8.03596 80.3289L8.50562 79.7054L8.75637 79.375L9.34941 78.6305L9.65987 78.2396L10.3843 77.3555L11.6301 75.8712L16.4898 70.1198M30.5 48.4033L30.4165 48.622L30.3767 48.7663L30.305 49.2688L30.2692 49.5573L30.2095 50.3809L30.1816 50.8369L30.1339 52.0189L30.11 52.661L30.0702 54.2477L30.0503 55.0946L30.0184 57.1234L30.0105 57.6585L29.9985 58.8218L29.9906 59.4174L29.9786 60.7064L29.9747 61.3625L29.9627 62.7817L29.9468 65.0571L29.9388 66.1879L29.9269 68.3795L29.9229 69.4544L29.9189 71.5018V72.4976V74.3542L29.9229 75.2523L29.9269 76.8669L29.9309 77.6394L29.9428 78.9702L29.9508 79.5937L29.9667 80.5895L29.9747 81.0455L29.9945 81.6644L30.0344 82.1158L30.0861 82.2786L30.2891 82.5299L30.6354 82.7021H30.6672L30.7309 82.4322L30.7627 82.2554L30.8145 81.6272L30.8423 81.2735L30.8861 80.287L30.906 79.7473L30.9418 78.4025L30.9617 77.6859L30.9896 75.9782L31.0015 75.0801L31.0214 73.0141L31.0294 71.9345L31.0374 69.5009L31.0413 68.2399L31.0453 65.448V64.5965V63.0144L31.0413 62.2373V60.8041L31.0374 60.1015L31.0334 58.8079L31.0294 58.1797L31.0214 57.021L31.0175 56.4627L31.0095 55.4343L31.0055 54.9364L30.9896 54.0337L30.9776 53.1589L30.9418 51.7583L30.9259 51.1115L30.8781 50.1297L30.8503 49.6876L30.7906 49.0734L30.7587 48.8082L30.6831 48.515L30.5478 48.3847M54.385 80.8408H52.9641H52.2716L50.9979 80.8454L50.381 80.8501L49.2466 80.8547L48.6974 80.8594L47.6944 80.864L47.2088 80.8687L46.3292 80.8827L45.9073 80.8873L45.1471 80.9013L44.7809 80.9106L44.1281 80.9292L43.8177 80.9385L43.2644 80.9618L42.7391 80.985L41.9629 81.0455L41.6127 81.0781L41.143 81.1618L40.94 81.2084L40.7171 81.3108L40.5977 81.5015V81.683L40.745 82.0367L41.0952 82.395L41.1311 82.4136L41.4813 82.4415L41.6963 82.4554L42.3888 82.4834L42.7709 82.4927L43.758 82.5159L44.2873 82.5252L45.5371 82.5392L46.1899 82.5485L47.6625 82.5578L48.4188 82.5625L50.0705 82.5671H50.9183L52.7094 82.5625L55.5194 82.5532L56.3234 82.5485L57.804 82.5392L58.5204 82.5346L59.8259 82.5206L60.4548 82.5159L61.6011 82.5066L62.1543 82.4973L63.1454 82.488L63.623 82.4787L64.4748 82.4601L64.8847 82.4554L65.6091 82.4322L65.9554 82.4229L66.5604 82.3996L66.8469 82.3856L67.3445 82.3577L67.8141 82.3298L68.4788 82.2507L68.7733 82.2088L69.1435 82.1018L69.3027 82.046L69.4659 81.9064L69.5336 81.8319L69.5773 81.6551L69.5932 81.5574L69.5535 81.3992L69.5137 81.3247L69.2947 81.2037L69.1554 81.1479L68.6699 81.0641L68.3833 81.0223L67.5315 80.9618L67.2927 80.9478L66.7315 80.9245L66.433 80.9152L65.7484 80.8966L65.3902 80.8873L64.5743 80.878L64.1484 80.8687L63.1852 80.8594L62.6837 80.8547L61.5653 80.8501H60.9841L59.6986 80.8454L59.0339 80.8408H57.5692H55.1532M2.63885 48.4033L2.55527 48.6267L2.51149 48.7756L2.44383 49.2828L2.408 49.5806L2.3483 50.4182L2.32043 50.8835L2.27267 52.0933L2.24879 52.7448L2.20899 54.3641L2.18909 55.2296L2.15726 57.3002L2.14929 57.8493L2.13735 59.0359L2.12939 59.6455L2.11745 60.9623L2.11347 61.6324L2.10153 63.0842L2.0856 65.4061L2.07765 66.3321L2.06969 68.0305L2.06571 68.8541L2.05775 70.3711L2.05377 71.1063L2.04978 72.4418V73.0932V74.2658V74.8335L2.05377 75.8525V76.3458L2.06172 77.2206L2.06571 77.6394L2.07765 78.3839L2.0856 78.7375L2.10153 79.3611L2.11745 79.9474L2.1692 80.8036L2.19705 81.1851L2.2687 81.683L2.30849 81.897L2.40403 82.1204L2.58313 82.2367H2.64681L2.75825 82.1158L2.81 82.0273L2.89756 81.6691L2.93737 81.455L3.00502 80.7756L3.03289 80.3894L3.08065 79.3052L3.09259 79.0074L3.10851 78.3187L3.11647 77.9604L3.13239 77.1415L3.14036 76.7134L3.1523 75.7595L3.15627 75.2616L3.16424 74.1541L3.16821 73.5771L3.1722 72.3115L3.17618 71.6554L3.18015 70.2175V69.4777L3.18414 67.8584V67.0254V65.2153V64.3778V62.8143L3.18015 62.0512V60.6319L3.17618 59.9433L3.1722 58.6683L3.16821 58.0448L3.16026 56.9047L3.15627 56.351L3.14832 55.3366L3.14433 54.848L3.12841 53.9546L3.11647 53.0937L3.08065 51.7117L3.06473 51.0743L3.01696 50.1064L2.98911 49.669L2.9294 49.0641L2.89756 48.8035L2.82194 48.515L2.68661 48.3847M16.8202 64.6663L16.9157 64.7407L17.1904 64.9873L17.3376 65.1269L17.7038 65.4899L17.8948 65.69L18.3406 66.1599L18.8023 66.6578L19.9048 67.9002L21.7158 70.0221L22.1616 70.5572L22.9337 71.5018L23.3039 71.9532L23.9328 72.7442L24.2273 73.1211L24.7248 73.7726L24.9557 74.089L25.3298 74.6241L25.5009 74.8847L25.7676 75.3221L25.887 75.5315L26.0582 75.8944L26.2691 76.7692V77.1322L26.1219 77.6813L26.0781 77.7929L25.9626 77.9511L25.7636 78.0489H25.7278L25.5766 77.9511L25.489 77.886L25.2383 77.6627L25.1029 77.537L24.7686 77.2113L24.5935 77.0345L24.1835 76.6157L23.7616 76.169L22.7506 75.0615L21.0949 73.163L20.5217 72.4929L19.4471 71.2645L18.9297 70.6829L18.0381 69.7103L17.8312 69.4916L17.469 69.1147L17.2978 68.9379L17.0152 68.6633L16.8839 68.5377L16.6968 68.3749L16.5296 68.2771H16.5018L16.3625 68.3842L16.2749 68.4493L16.0281 68.682L15.8928 68.8123L15.5545 69.1566L15.3754 69.3427L14.9575 69.7848L14.5197 70.2501L13.4689 71.4181L11.7296 73.4096L11.1206 74.1169L9.9942 75.3779L9.45689 75.9782L8.53747 76.9414L8.32253 77.1601L7.95635 77.523L7.78123 77.6906L7.50262 77.9418L7.37127 78.0535L7.19217 78.1791L7.11256 78.2257L7.0449 78.221L6.96928 78.128L6.84987 77.6487L6.76629 76.7367V76.5226L7.00907 75.9037L7.09664 75.7316L7.33545 75.3221L7.4668 75.1034L7.80511 74.6055L7.9882 74.3403L8.43796 73.7354L8.68075 73.4189L9.24594 72.7023L9.54445 72.3254L10.237 71.4832L11.4231 70.064L12.0639 69.3055L13.2739 67.9235L13.855 67.2674L14.8699 66.1739L15.1047 65.9226L15.5187 65.4992L15.7137 65.2991L16.0401 64.9873L16.1913 64.8477L16.4142 64.6663L16.6172 64.5546H16.657M139.151 68.7518L139.493 68.7797L140.154 68.9798L140.48 69.0961L141.065 69.4637L141.344 69.6638L141.809 70.1756L142.02 70.4502L142.307 71.0923L142.49 72.1812V72.693L142.363 73.5864L142.275 74.0145L141.977 74.7218L141.809 75.0569L141.344 75.5734L140.468 76.1317L140.098 76.2806L139.537 76.4714L139.278 76.5505L138.844 76.5924L138.633 76.5971L138.211 76.4994L137.992 76.4295L137.459 76.1922L137.188 76.062L136.719 75.7036L136.5 75.5129L136.134 75.0429L135.967 74.7963L135.712 74.2472L135.596 73.968L135.457 73.3677L135.401 73.0653L135.381 72.4464L135.385 72.1393L135.493 71.5297L135.561 71.2319L135.795 70.6596L136.301 69.8825L136.556 69.5893L137.149 69.1752L137.455 68.9984L138.124 68.8076L138.458 68.7378M193.034 68.9798L193.448 69.1287L194.173 69.5568L194.499 69.7801L194.905 70.2594L194.973 70.3757L195.02 70.5898L194.925 70.8783L194.881 70.9295L194.742 70.9388L194.666 70.9295L194.475 70.8317L193.814 70.2222L193.607 69.9569L193.166 69.594L192.943 69.4404L192.493 69.2776L192.266 69.2171L191.828 69.245L191.613 69.2776L191.207 69.473L191.012 69.594L190.666 69.9476L190.503 70.1477L190.24 70.6503L190.117 70.9155L189.958 71.5483L189.854 72.6325V73.1723L189.993 74.1914L190.037 74.4194L190.145 74.7916L190.332 75.1639L190.527 75.3919L191.144 75.6432L191.474 75.7316L192.21 75.7176L192.577 75.6804L193.237 75.4244L193.926 74.7916L194.073 74.5124L194.348 74.1495L194.479 74.0006L194.702 73.8936L194.801 73.8749L194.941 74.0378L195.028 74.5822V74.666L194.929 74.8614L194.861 74.9638L194.654 75.1918L194.427 75.4244L193.779 75.8898L193.44 76.1085L192.756 76.4342L192.596 76.4994L192.306 76.5738L191.956 76.5877L191.872 76.5738L191.486 76.4854L191.275 76.4389L190.789 76.3318L190.527 76.2713L190.025 75.9782L189.782 75.8107L189.365 75.35L189.169 75.1034L188.883 74.5357L188.652 73.6283L188.616 73.2188L188.604 72.479L188.608 72.1207L188.684 71.4832L188.728 71.1761L188.887 70.641L188.974 70.3897L189.213 69.9569L189.345 69.7522L189.671 69.4218L189.842 69.2729L190.252 69.0449L190.467 68.9425L190.961 68.8169L191.8 68.7425H192.194M158.498 68.9844L158.92 69.1333L159.613 69.58L159.768 69.6964L160.007 69.9523L160.114 70.0779L160.254 70.3385L160.305 70.4641L160.313 70.7154L160.162 71.0598L160.082 71.1575L159.923 71.2412L159.84 71.2645L159.672 71.1993L159.585 71.1482L159.39 70.9202L159.059 70.3943L158.908 70.1291L158.566 69.7383L158.387 69.5661L158.001 69.3474L157.806 69.259L157.4 69.2078L157.197 69.2031L156.791 69.3102L156.592 69.3846L156.21 69.6405L156.023 69.7894L155.688 70.1896L155.529 70.4083L155.262 70.9388L154.968 71.8834L154.884 72.2603L154.888 72.9629L154.916 73.3026L155.099 73.9122L155.211 74.2053L155.541 74.6985L155.72 74.9266L156.154 75.2756L156.381 75.4291L156.882 75.6106L157.137 75.6757L157.666 75.6571L157.929 75.6199L158.447 75.3779L159.167 74.7358L159.394 74.4519L159.832 74.0983L159.935 74.0331L160.102 73.9773L160.273 74.0238L160.333 74.089L160.353 74.2658L160.349 74.3589L160.265 74.5729L160.154 74.7916L159.7 75.2802L159.446 75.5222L158.809 75.941L157.814 76.3411L157.483 76.4109L156.667 76.383L156.261 76.3458L155.581 76.141L155.33 76.0294L154.896 75.6943L154.689 75.5129L154.351 75.0522L154.196 74.8149L153.965 74.2658L153.861 73.9866L153.738 73.3817L153.69 73.0792L153.682 72.4511L153.694 72.1393L153.806 71.5251L153.877 71.2226L154.112 70.6549L154.61 69.8825L154.789 69.6778L155.147 69.3567L155.33 69.2124L155.724 69.003L155.927 68.9146L156.381 68.803L157.153 68.7425H157.611M223.224 68.9193L223.351 69.0449L223.658 69.5521L223.737 69.701L223.924 70.0872L224.02 70.292L224.243 70.7945L224.358 71.0644L224.617 71.6972L225.067 72.8093L225.206 73.1677L225.437 73.8284L225.54 74.1448L225.695 74.7032L225.763 74.9731L225.847 75.4151L225.879 75.6199L225.891 75.927L225.887 76.062L225.823 76.2062L225.783 76.262L225.648 76.2295L225.576 76.1922L225.369 75.9596L224.987 75.3733L224.82 75.0848L224.37 74.6334L223.737 74.317H223.614L223.451 74.2984L223.387 74.2844L223.339 74.2332L223.327 74.2007L223.391 74.1123L223.606 73.9261L223.709 73.8517L223.841 73.6842L223.892 73.5957L223.924 73.3724L223.928 73.2514L223.857 72.935L223.642 72.3068L223.49 71.9159L223.176 71.4274L223.017 71.2273L222.694 71.1249L222.535 71.1202L222.221 71.3994L221.759 72.2556L221.612 72.6325L221.433 73.1304L221.361 73.3445L221.345 73.6004L221.361 73.7121L221.524 73.8377L221.994 74.0052L222.125 74.0471L222.284 74.1123L222.344 74.1402L222.352 74.1867L222.34 74.2053L222.197 74.2379L221.811 74.2705L221.568 74.2891L221.063 74.5822L220.501 75.2569L220.386 75.5129L220.087 75.913L219.697 76.1876H219.646L219.677 75.8944L219.713 75.7036L219.9 75.0941L220.012 74.7544L220.33 73.9122L220.501 73.4655L220.923 72.465L221.142 71.9532L221.572 71.0179L221.783 70.5758L222.153 69.836L222.328 69.4963L222.603 69.0356L222.858 68.7425H222.977M174.98 69.0077L175.096 69.1752L175.394 69.7103L175.553 70.0035L175.912 70.7201L176.095 71.0923L176.469 71.902L176.843 72.7163L177.472 74.2565L177.607 74.6008L177.794 75.1639L177.914 75.713V75.927L177.73 76.1364L177.623 76.2108L177.313 76.1643L177.157 76.1131L176.847 75.8479L176.52 75.2569L176.469 75.0708L176.318 74.7963L176.23 74.6753L175.967 74.5124L175.82 74.4426L175.394 74.3682L174.518 74.3263H174.18L173.659 74.3728L173.416 74.4007L173.05 74.5217L172.883 74.5962L172.632 74.8102L172.341 75.2569L172.226 75.5129L171.927 75.913L171.525 76.1876H171.474L171.502 75.8944L171.537 75.7036L171.724 75.0941L171.832 74.7544L172.15 73.9122L172.321 73.4655L172.739 72.465L172.958 71.9532L173.392 71.0179L173.603 70.5758L173.985 69.836L174.164 69.4963L174.451 69.0356L174.729 68.7425H174.777M87.0304 68.896L87.2811 69.2357L87.4165 69.4451L87.7428 70.0686L87.914 70.4083L88.2762 71.2133L88.4553 71.6274L88.8135 72.5116L88.9886 72.949L89.2991 73.8051L89.4463 74.2193L89.6732 74.9452L89.7687 75.2849L89.8682 75.7781L89.8244 76.141L89.705 76.1922L89.3548 75.9782L88.8294 75.3267L88.7339 75.1546L88.4593 74.8754L88.312 74.7451L87.9577 74.5497L87.5876 74.3775L86.7358 74.2751L86.31 74.2705L85.5259 74.5078L85.3468 74.5915L85.0363 74.8195L84.6861 75.2569L84.5467 75.5129L84.1806 75.913L83.6592 76.1876H83.5716L83.5438 75.9456L83.5517 75.7828L83.7029 75.229L83.8025 74.9126L84.1328 74.0611L84.3239 73.5957L84.8293 72.4557L85.0642 71.9439L85.5219 71.0225L85.7488 70.5805L86.1547 69.8639L86.3458 69.5382L86.6523 69.1101L86.9468 68.8681M104.79 68.8774L105.236 68.9658L105.972 69.2822L106.314 69.4637L106.848 69.9569L107.421 70.9109L107.592 71.3483L107.775 72.116L107.839 72.4883L107.807 73.163L107.767 73.4934L107.516 74.1169L106.887 75.0475L106.688 75.2756L106.306 75.6152L106.115 75.7688L105.681 75.9642L105.451 76.048L104.877 76.141L103.767 76.1876H103.178L102.207 76.1317L102 76.1131L101.693 76.0713L101.566 76.048L101.462 75.9968L101.439 75.9689L101.407 75.6432L101.395 75.4384L101.383 74.8242L101.379 74.4845L101.387 73.6609L101.427 72.2742L101.558 68.7425H103.847M118.784 68.8541L119.174 69.1799L119.258 69.2543L119.457 69.5614L119.56 69.7336L119.787 70.185L120.432 71.8043L120.619 72.3673L121.069 73.2561L121.176 73.4422L121.383 73.6981L121.65 73.861H121.797L122.032 73.7493L122.191 73.4887V73.4096L122.295 73.0978L122.362 72.9257L122.573 72.465L122.8 71.9857L123.425 70.8504L123.739 70.2966L124.317 69.3939L124.448 69.2078L124.643 68.9705L124.818 68.8681L124.862 68.9193L124.798 69.3008L124.746 69.5289L124.524 70.185L124.396 70.5339L124.062 71.3622L123.887 71.7857L123.493 72.6791L123.29 73.1258L122.88 73.9773L122.677 74.3914L122.295 75.1034L122.116 75.4291L121.813 75.8898L121.503 76.1876H121.435L121.188 75.913L121.053 75.7362L120.711 75.1685L120.531 74.8521L120.133 74.0611L119.93 73.6469L119.52 72.7163L119.341 72.2929L119.047 71.5483L118.912 71.1947L118.697 70.5805L118.601 70.2873L118.466 69.808L118.41 69.5847L118.362 69.245L118.346 69.0914L118.378 68.896L118.406 68.8123L118.518 68.7611L118.585 68.7564M207.633 69.1333L207.713 69.245L207.813 69.6871L207.856 69.9523L207.904 70.7573L207.932 72.4604V72.8326L207.928 73.4608L207.924 73.7586L207.908 74.2611L207.888 74.7311L207.805 75.3407L207.753 75.6059L207.594 75.8944L207.235 76.1085L207.076 76.141L206.865 76.0806L206.774 76.0154L206.67 75.6385L206.65 75.5175L206.626 75.1964L206.619 75.015L206.611 74.559V74.317L206.623 73.7121L206.63 73.391L206.654 72.6186L206.674 71.9159L206.738 70.8597L206.77 70.385L206.865 69.7383L206.921 69.4591L207.064 69.1473L207.351 68.9751H207.466M103.401 69.3288L103.289 69.3799L103.11 69.5754L103.027 69.6917L102.903 70.0221L102.848 70.2036L102.776 70.6782L102.744 70.9341L102.708 71.567L102.688 72.7116V75.7781L104.177 75.6339L104.475 75.6059L104.937 75.5036L105.148 75.4431L105.478 75.2523L105.63 75.1406L105.876 74.8195L105.996 74.6381L106.211 74.1541L106.406 73.6842L106.545 72.7163L106.573 72.2417L106.414 71.3529L106.298 70.9295L105.869 70.2408L104.957 69.5475L104.718 69.4544L104.312 69.3334L104.121 69.2822L103.799 69.2543L103.648 69.2497M138.824 69.2078L138.359 69.3474L138.132 69.4404L137.734 69.7383L137.543 69.9011L137.224 70.3245L137.077 70.5479L136.854 71.0644L136.755 71.3296L136.635 71.902L136.587 72.1951V72.8L136.603 73.1025L136.731 73.7028L137.081 74.559L137.296 74.9405L137.881 75.4244L138.187 75.6245L138.872 75.7409L139.21 75.7502L139.867 75.4943L140.178 75.3221L140.675 74.6892L140.83 74.4333L141.037 73.861L141.121 73.5725L141.204 72.9676L141.228 72.6605L141.193 72.0509L141.165 71.7531L141.025 71.1761L140.946 70.9016L140.715 70.399L140.588 70.1617L140.273 69.7755L140.11 69.5986L139.724 69.3613L139.079 69.2078M86.5965 71.0691L86.3299 71.3622L86.1945 71.539L85.9637 72.0416L85.8602 72.3022L85.7408 72.8187L85.7766 73.405L85.8363 73.5166L86.2184 73.6888L86.4333 73.7679L86.9587 73.8517L87.2174 73.8796L87.6553 73.8517L87.7468 73.8331L87.8781 73.7772L87.9299 73.7447L87.9617 73.6516V73.5073L87.8065 73.0048L87.711 72.7349L87.4443 72.144L87.305 71.8555L87.0304 71.3901L86.7159 71.0691M174.244 71.0691L173.989 71.4134L173.862 71.6228L173.627 72.1998L173.519 72.4929L173.396 73.0467L173.428 73.5818L173.496 73.6609L173.925 73.7772L174.785 73.861H175.008L175.322 73.8238L175.462 73.8005L175.625 73.6981L175.689 73.6376L175.724 73.4468V73.3398L175.649 73.0467L175.494 72.5255L175.016 71.6693L174.897 71.4878L174.662 71.2319L174.347 71.0691M71.842 68.5098L55.2129 68.6308L54.3492 68.6354L52.7452 68.6494L51.9651 68.654L50.5243 68.6587L49.8238 68.6633L48.5342 68.668H47.9093H46.767H46.2137L45.2107 68.6633L44.7252 68.6587L43.8495 68.654L43.4276 68.6494L42.6754 68.6354L42.3092 68.6261L41.6684 68.6075L41.0554 68.5889L40.132 68.5377L39.7141 68.5051L39.133 68.4307L38.8823 68.3888L38.5798 68.2911L38.4604 68.2353L38.3768 68.1096L38.3449 68.0212L38.3012 67.6629L38.2852 67.4582L38.2614 66.9231L38.2852 64.9641L38.4086 62.4606H71.842M54.2935 64.7872H52.7691H52.0288L50.6835 64.7919H50.0347L48.8566 64.7965L48.2874 64.8012L47.2645 64.8059L46.7749 64.8105L45.8953 64.8245L45.4734 64.8291L44.7331 64.8431L44.3749 64.8524L43.758 64.8756L43.4595 64.8849L42.95 64.9082L42.4684 64.9361L41.7878 65.0106L41.4893 65.0525L41.1112 65.1548L40.952 65.2107L40.7848 65.3503L40.6733 65.6015L40.6574 65.6993L40.6972 65.8575L40.737 65.9319L40.9559 66.0529L41.0952 66.1087L41.5848 66.1925L41.8714 66.2344L42.7231 66.2949L42.9619 66.3088L43.5271 66.3321L43.8217 66.3414L44.5102 66.36L44.8685 66.3693L45.6884 66.3786L46.1142 66.3879L47.0814 66.3972L47.5829 66.4019L48.7013 66.4066H49.2825L50.572 66.4112L51.2407 66.4159H52.7094H55.1253H55.9811H57.5413H58.3015L59.6787 66.4112H60.3433L61.5493 66.4066L62.1304 66.4019L63.1693 66.3972L63.6708 66.3926L64.5623 66.3786L64.9922 66.374L65.7405 66.36L66.1026 66.3507L66.7236 66.3321L67.0221 66.3228L67.5275 66.2949L68.0052 66.267L68.6659 66.1925L68.9524 66.1553L69.2947 66.0529L69.4341 65.9971L69.5535 65.8575L69.5932 65.783L69.5773 65.6015L69.5614 65.5085L69.4659 65.3503L69.4022 65.2758L69.1395 65.1548L68.9803 65.099L68.4629 65.0106L68.1644 64.9687L67.3007 64.9082L67.0579 64.8989L66.4927 64.8756L66.1982 64.8617L65.5176 64.8431L65.1633 64.8384L64.3554 64.8245L63.9335 64.8152L62.9862 64.8059H62.4926L61.3941 64.7965H60.8249L59.5672 64.7919H58.9145L57.4816 64.7872H55.1253M92.2324 37.6916L92.7897 37.7661L93.7171 38.1384L94.1509 38.3571L94.8235 38.9666L95.126 39.297L95.54 40.0834L95.7111 40.4929L95.8584 41.3956L95.8982 41.8516L95.7748 42.8009L95.6753 43.2755L95.2733 44.2061L95.0385 44.6621L94.3539 45.5137L93.0006 46.6305L92.6026 46.8817L91.9738 47.3517L91.8424 47.4541L91.6633 47.6262L91.5519 47.7938V47.8636L91.727 48.2405L91.8384 48.4592L92.1887 49.0594L92.3797 49.3758L92.8454 50.1157L93.0882 50.4926L93.6096 51.2743L93.8683 51.6652L94.3897 52.4051L94.6405 52.7634L95.0942 53.3822L95.3091 53.6614L95.6435 54.0616L95.938 54.3175H96.0176L96.2007 54.1547L96.2962 54.0477L96.5071 53.708L96.7181 53.3311L97.148 52.2376L97.3549 51.6652L97.6773 50.4414L97.749 50.1436L97.8405 49.5852L97.9042 48.85V48.4871L97.944 48.0031L97.9719 47.7891L98.135 47.5471L98.2385 47.4494L98.6087 47.3703L99.5042 47.3377H99.7351L100.117 47.3517L100.292 47.361L100.567 47.3936L100.694 47.4122L100.865 47.4773L100.937 47.5099L101.005 47.6076L101.053 47.7146L100.85 48.0497L100.125 48.7942L100.006 48.9059L99.7032 49.2921L99.548 49.5108L99.1898 50.0692L98.8236 50.6555L98.0634 52.084L97.6972 52.8006L97.1161 54.1221L96.9927 54.4246L96.8256 54.9224L96.7181 55.4576V55.5599L96.8574 55.8205L96.949 55.9555L97.2395 56.2719L97.5619 56.593L98.4734 57.2816L98.947 57.612L99.9221 58.1425L100.153 58.2541L100.571 58.4077L101.088 58.5054H101.371L102.071 58.2914L102.999 57.7795L103.242 57.5794L103.572 57.37L103.707 57.3002L103.835 57.3468L103.87 57.4073L103.799 57.7283L103.472 58.5333L103.337 58.8265L102.844 59.3849L102.565 59.6548L101.872 60.1201L101.51 60.3341L100.73 60.6366L99.5918 60.832H99.4366L98.9987 60.7157L98.7679 60.6459L98.2306 60.4039L96.5708 59.3802L96.3559 59.2127L95.9937 58.9382L95.8186 58.8079L95.532 58.6078L95.2614 58.4263L94.8793 58.2681L94.7081 58.2169L94.4295 58.3007L93.9996 58.6636L93.7569 58.9242L93.2076 59.3709L92.925 59.585L92.3121 59.9386L91.6872 60.269L90.3339 60.6226L89.6533 60.7483L88.304 60.6785L87.9737 60.6319L87.3408 60.4505L87.0304 60.3481L86.4493 60.0549L86.1627 59.8874L85.6612 59.4686L85.4224 59.2406L85.0164 58.7148L84.8254 58.4403L84.5229 57.8261L84.3836 57.5096L84.1846 56.8349L84.097 56.4906L84.0134 55.774L83.9816 55.411L84.0134 54.6758L84.0413 54.3036L84.1965 53.5684L84.5666 52.4842L84.6462 52.3027L84.9209 51.8467L85.0721 51.6094L85.4542 51.0882L86.7637 49.5945L88.3757 48.0311L87.5717 46.1884L87.3886 45.7696L87.1219 44.9181L87.0025 44.4946L86.8672 43.6571L86.8154 43.2383L86.8075 42.4286L86.8194 42.0284L86.9309 41.2746L87.0025 40.907L87.2334 40.2276L87.3607 39.8973L87.707 39.3156L87.8901 39.0364L88.3438 38.5758L89.1438 38.036L89.3229 37.9522L89.7727 37.8173L90.0115 37.7568L90.5449 37.6823M88.5707 49.4317L88.3757 49.562L88.2722 49.6504L88.0652 49.9249L87.8543 50.232L87.4483 51.1487L87.2533 51.6373L86.9627 52.7122L86.7677 54.2245V54.7782L86.9468 55.8252L87.0622 56.3277L87.4324 57.2025L87.6393 57.612L88.1607 58.2309L89.0642 58.7707L89.3628 58.8498L89.9478 59.008L90.5488 59.1755L90.6722 59.2174L91.114 59.1429L91.3528 59.0871L91.918 58.873L92.2046 58.752L92.7578 58.4449L93.0205 58.2867L93.4225 57.9563L93.5618 57.8214L93.7807 57.5189L93.932 57.17V57.0862L93.725 56.6441L93.5897 56.3836L93.1718 55.6763L92.9409 55.2994L92.3837 54.4246L92.0932 53.9778L91.4683 53.0472L91.1499 52.5865L90.5289 51.7024L90.2225 51.2743L89.6772 50.5438L89.4185 50.2088L89.0165 49.7388L88.9289 49.6411L88.7936 49.5108L88.6583 49.4317M71.9654 48.9524L71.9893 49.5061L71.9933 50.3484L71.9893 50.7346L71.9217 51.293L71.8779 51.5489L71.7266 51.9118L71.3923 52.326L71.3246 52.3865L71.0301 52.4842L70.859 52.5307L70.3216 52.6098L70.0151 52.6517L69.1913 52.7122L68.7375 52.7401L67.5872 52.7866L66.9624 52.8052L65.4419 52.8378L65.036 52.8425L64.1444 52.8518L63.6907 52.8564L62.6956 52.8657L62.1822 52.8704L61.0757 52.875H60.5065H59.2846H58.6558H57.3104L55.1492 52.8657H54.0786L52.0128 52.8518L50.9939 52.8471L49.0556 52.8285L48.1083 52.8192L46.3491 52.8006L45.4973 52.7913L43.961 52.768L43.2246 52.7541L41.951 52.7261L41.354 52.7122L40.3908 52.6843L39.9569 52.6703L39.3479 52.6424L39.0932 52.6284L38.8902 52.5958L38.735 52.5493L38.5241 52.3725L38.4285 52.2608L38.3211 51.8653L38.2813 51.628L38.2574 50.8928L38.2534 50.6834L38.2654 50.1762L38.2932 49.2781L38.4086 46.1744H71.842M49.6247 48.3614L48.7611 48.3661L47.1889 48.3801L46.4327 48.3847L45.0913 48.4126L44.4505 48.4266L43.3679 48.4592L42.8624 48.4778L42.0664 48.5243L41.7042 48.5476L41.2226 48.5988L40.8763 48.6872L40.737 48.85L40.6097 49.1199L40.5738 49.2456L40.7052 49.4549L40.8127 49.5527L41.2823 49.7109L41.4256 49.7434L41.7878 49.8086L41.9828 49.8365L42.4525 49.8923L42.7072 49.9156L43.3003 49.9575L43.6107 49.9808L44.3351 50.0133L44.7132 50.0273L45.5769 50.0552L46.0267 50.0645L47.0376 50.0831L47.567 50.0924L48.7372 50.1064L49.3422 50.111L50.6835 50.1204L51.372 50.125L52.8925 50.1297H55.3761H56.2159H57.7523H58.4965L59.8498 50.125H60.5065L61.6886 50.1204L62.2578 50.1157L63.2807 50.111L63.7743 50.1064L64.6499 50.0924L65.0718 50.0878L65.8081 50.0738L66.1624 50.0645L66.7753 50.0459L67.0658 50.0366L67.5634 50.0087L68.033 49.9808L68.6818 49.9063L68.9644 49.8691L69.3027 49.7667L69.438 49.7109L69.5535 49.5713L69.5932 49.4968L69.5773 49.3153L69.5614 49.2223L69.4659 49.0641L69.3982 48.9896L69.1395 48.8686L68.9763 48.8082L68.4629 48.7151L68.1684 48.6732L67.3126 48.6081L67.0738 48.5895L66.5166 48.5615L66.226 48.5476L65.5574 48.5243L65.2031 48.515L64.4071 48.4964L63.9932 48.4824L63.0618 48.4685L62.5762 48.4592L61.4976 48.4405L60.9404 48.4359L59.7025 48.4219L59.0617 48.4126L57.6567 48.3987L55.3442 48.3801L54.3094 48.3707L52.3551 48.3614L51.3999 48.3568M90.9588 38.1616L90.1349 38.8131L89.9558 39.0225L89.7329 39.6786L89.6414 40.0369L89.5777 40.907L89.5618 41.3584L89.6334 42.3216L89.6852 42.8102L89.8643 43.7594L89.9677 44.2247L90.2344 45.053L90.3737 45.4392L90.7041 46.0255L90.8712 46.2815L91.2374 46.5188L91.329 46.5513L91.516 46.5281L91.7946 46.3559L91.9618 46.1977L92.3837 45.5695L92.5947 45.2298L92.9648 44.4853L93.1678 44.02L93.4066 43.0707L93.4942 42.5915L93.526 41.6655L93.5181 41.2141L93.3748 40.3766L93.2832 39.9717L92.9967 39.2877L92.8374 38.9666L92.4354 38.492L92.2245 38.2873L91.7429 38.0872L91.4921 38.0267M42.6833 0.884843L43.2286 0.931363L43.4794 0.959281L43.8495 1.04305L44.1441 1.20126L44.1759 1.26175L44.2316 1.70845L44.2555 1.97833L44.2953 2.76008L44.3112 3.18351L44.3311 4.20256V5.87772L44.3271 6.17087L44.3192 7.03172L44.3152 7.50634L44.3072 8.69756L44.3033 9.3304L44.2913 10.7962L44.2873 11.5546L44.2794 13.2437L44.2754 14.1092L44.2674 15.9659L44.2635 16.9105L44.2515 18.8881L44.2276 25.0024L44.1799 39.8926H41.151L40.4385 39.8554L40.1082 39.8321L39.5907 39.7437L39.3559 39.6972L39.0375 39.5622L38.9022 39.4924L38.7907 39.311L38.7828 39.2924L38.7708 39.1528L38.7629 39.069L38.7549 38.8084L38.743 38.5199L38.7231 37.5986L38.7151 37.0821L38.6992 35.7559L38.6952 35.044L38.6833 33.3642L38.6793 32.4847L38.6753 30.5025V29.4788V27.2452L38.6793 26.1052L38.6872 23.6809L38.7032 19.8839L38.8066 1.03839L41.3579 0.898802L41.7082 0.880185H42.3649M71.842 1.03839L71.9535 19.4185L71.9614 20.6842L71.9694 23.1318L71.9734 24.3416L71.9774 26.6357L71.9813 27.7617L71.9774 29.8557L71.9734 30.8701L71.9654 32.7081L71.9614 33.5875L71.9495 35.1091L71.9416 35.8304L71.9217 36.989L71.9097 37.5195L71.8858 38.2593L71.846 38.8456L71.7983 39.083L71.655 39.4087L71.5674 39.5529L71.2609 39.7251L71.0739 39.7949L70.4729 39.8647L70.3017 39.874L69.8758 39.888L69.1156 39.8926H68.7694L68.1166 39.8694L67.8022 39.8507L67.2609 39.7995L67.0101 39.7716L66.636 39.7018L66.4768 39.6646L66.3375 39.5808L66.3255 39.5715L66.3096 39.4506L66.3017 39.3761L66.2818 39.1248L66.2658 38.8503L66.234 37.9429L66.2181 37.4357L66.1862 36.1096L66.1743 35.3976L66.1504 33.7085L66.1385 32.8197L66.1146 30.8189L66.1066 29.7812L66.0907 27.5198L66.0867 26.3611L66.0748 23.8903L66.0708 20.0188V0.763855M16.9316 32.9268L18.9058 32.9361L22.7228 32.9687L23.6462 32.978L25.3895 33.0012L26.2413 33.0152L27.7935 33.0478L28.5378 33.0617L29.8353 33.0989L30.4483 33.1222L31.4394 33.1641L31.8891 33.1827L32.506 33.2339L32.6374 33.2432L32.8165 33.2711L32.9558 33.313L33.0473 33.3781L33.1827 33.6573L33.2424 33.8248L33.322 34.3181L33.3538 34.5926L33.3777 35.3139L33.3538 36.6773L33.2344 39.66L16.8879 39.7809L15.7615 39.7902L13.5963 39.7995L12.5335 39.8042H10.5196H9.53251L7.71755 39.7949L6.83793 39.7902L5.26178 39.7763L4.50953 39.767L3.22394 39.7437L2.61895 39.7298L1.66371 39.7018L1.23385 39.6832L0.656725 39.6507L0.541297 39.6367L0.382093 39.6181L0.318409 39.6088L0.270649 39.5855L0.230844 39.5436L0.163188 39.2365L0.13134 39.0504L0.0796082 38.5153L0.0557282 38.2221L0.019896 37.5241L0 36.3748V35.8211L0.031836 34.9742L0.0517441 34.588L0.135324 34.0342L0.183084 33.7923L0.326377 33.4712L0.628861 33.1967L0.66071 33.1827L0.80399 33.1548L0.891554 33.1455L1.14629 33.1222L1.4249 33.0989L2.27267 33.0571L2.73836 33.0384L3.92047 33.0059L4.54536 32.9919L6.00607 32.9687L6.7623 32.9594L8.43398 32.9407L9.2937 32.9361L11.1246 32.9268L12.9873 32.9175M15.8649 35.7047L14.257 35.7094H13.4729L12.04 35.714L11.3475 35.7187L10.0818 35.7327L9.4728 35.7373L8.37029 35.7559L7.83695 35.7652L6.88569 35.7885L6.43195 35.8024L5.62398 35.835L5.24189 35.849L4.57321 35.8909L4.2548 35.9095L3.71349 35.9607L3.45877 35.9839L3.04085 36.0444L2.84582 36.077L2.53935 36.1468L2.25676 36.2166L1.99804 36.3981L1.91446 36.4958L1.99804 36.7284L2.43586 37.1472L2.47567 37.1751L2.83388 37.2263L3.05677 37.2542L3.75728 37.3054L4.14734 37.3287L5.14636 37.3752L5.68368 37.3938L6.9454 37.4357L7.6061 37.4543L9.0907 37.4869L9.85887 37.5009L11.5226 37.5241L12.3783 37.5334L14.1853 37.5474L17.0152 37.5567L17.8749 37.5614H19.4431H20.1994L21.5725 37.5567H22.2332H23.4233L23.9964 37.5521L25.0154 37.5474L25.5049 37.5428L26.3686 37.5334L26.7826 37.5241L27.503 37.5102L27.8492 37.5009L28.4383 37.4823L28.7209 37.4683L29.1945 37.4404L29.6403 37.4125L30.2373 37.3287L30.4921 37.2868L30.7906 37.1658L30.91 37.1007L31.0055 36.9378L31.0413 36.8494L31.0453 36.6354V36.519L31.0055 36.3329L30.9737 36.2445L30.7826 36.1049L30.6632 36.0398L30.2214 35.9374L29.9587 35.8955L29.1587 35.8257L28.9318 35.8118L28.3905 35.7885L28.104 35.7745L27.4353 35.7606L27.085 35.7513L26.2811 35.7373L25.8592 35.7327L24.8999 35.7234L24.3984 35.7187L23.272 35.714L22.6909 35.7094H21.3855L20.7088 35.7047H19.2163H16.7406M68.8848 3.34638L68.8529 3.36965L68.7972 3.77913L68.7694 4.03971L68.7216 4.87728L68.6977 5.34726L68.6539 6.55708L68.6301 7.19922L68.5942 8.71152L68.5743 9.50257L68.5425 11.2522L68.5266 12.1549L68.5027 14.086L68.4788 16.045L68.4509 20.2282L68.443 22.3175L68.447 26.3797L68.4509 27.3662L68.4629 29.2228L68.4709 30.1302L68.4908 31.7821L68.5027 32.5778L68.5305 33.9598L68.5465 34.6112L68.5823 35.6629L68.6022 36.1421L68.6499 36.7982L68.7335 37.2636L68.8092 37.352L69.0321 37.4497L69.3664 37.445L69.3942 37.4357L69.442 37.0867L69.4659 36.8634L69.5097 36.1142L69.5336 35.6908L69.5733 34.574L69.5893 33.9784L69.6251 32.5312L69.641 31.7728L69.6689 30.0418L69.6808 29.1391L69.7007 27.1522L69.7087 26.1285L69.7206 23.9228L69.7246 22.7968V20.4143V19.251L69.7206 17.0175L69.7166 15.9147L69.7087 13.8347L69.7007 12.8203L69.6888 10.9451L69.6808 10.0377L69.6609 8.41372L69.653 7.63663L69.6331 6.31046L69.6211 5.69159L69.5972 4.70977L69.5853 4.26306L69.5574 3.67676L69.5137 3.28124L69.4579 3.21609L69.243 3.20213M41.3301 3.36499L41.2186 3.48598L41.1669 3.57439L41.0793 3.93268L41.0355 4.14673L40.9679 4.81679L40.936 5.19835L40.8843 6.25463L40.8724 6.54778L40.8485 7.21784L40.8365 7.56683L40.8166 8.36252L40.8087 8.77667L40.7927 9.70731L40.7808 10.1866L40.7689 11.2615L40.7609 11.8152L40.745 13.039L40.741 13.6718L40.7251 15.0631L40.7211 15.7751L40.7092 17.3386L40.6932 19.8792L40.6853 21.0192L40.6733 23.2109L40.6694 24.2951V26.3425L40.6654 27.3476L40.6694 29.2042V30.1069L40.6773 31.7309L40.6813 32.508L40.6972 33.8435L40.7012 34.4716L40.7211 35.4767L40.7291 35.9327L40.753 36.5563L40.7927 37.0216L40.8485 37.1938L41.0833 37.4032L41.4933 37.4497L41.541 37.4311L41.6246 37.2077L41.6644 37.0635L41.7321 36.5563L41.7679 36.2631L41.8196 35.4255L41.8475 34.9602L41.8873 33.7504L41.9072 33.0943L41.9351 31.4657L41.947 30.6002L41.9669 28.5109L41.9709 27.9572L41.9788 26.7566L41.9828 26.1424L41.9868 24.8116V24.1322L41.9908 22.6665V21.9173V20.312V19.3906V17.6875V16.8639L41.9868 15.347V14.6118L41.9788 13.267V12.6202L41.9709 11.4383L41.9669 10.8706L41.9589 9.84225L41.951 9.349L41.939 8.4649L41.9311 8.04145L41.9152 7.29229L41.9072 6.934L41.8873 6.30582L41.8674 5.70555L41.8117 4.83541L41.7798 4.44918L41.7082 3.93734L41.6644 3.71864L41.5689 3.48598L41.3938 3.36499M33.2344 17.3246V23.3738L16.6172 23.4947L0 23.6157V17.0826M64.6897 7.43189L64.7255 7.50634L64.7852 7.739L64.8768 8.75339V9.0512L64.6976 9.69799L64.634 9.87481L64.4389 10.2703L64.3315 10.4797L64.033 10.9637L63.8698 11.2196L63.4558 11.8152L63.229 12.127L62.6797 12.8622L62.3852 13.2484L61.6807 14.1511L60.4389 15.7099L59.8259 16.4684L58.6757 17.8737L58.1224 18.5437L57.1632 19.6745L56.9403 19.935L56.5502 20.3818L56.3632 20.5911L56.0567 20.9308L55.9174 21.0844L55.7064 21.2938L55.5194 21.4473L55.4875 21.4659L55.3323 21.3822L55.2368 21.3217L54.9701 21.103L54.8228 20.9774L54.4606 20.6377L54.2656 20.4515L53.8238 20.0048L53.3581 19.5302L52.2437 18.3204L51.6666 17.6829L50.4088 16.2311L49.9073 15.6448L49.0596 14.6397L48.6576 14.1604L47.9929 13.3508L47.6824 12.9645L47.1809 12.3131L46.9501 12.006L46.5879 11.4895L46.4247 11.2429L46.1819 10.8194L46.0744 10.6193L45.9351 10.2657L45.7719 9.28852V8.87904L45.8635 8.22759L45.8913 8.09265L45.959 7.90652L46.0784 7.78553H46.0983L46.2257 7.88325L46.3013 7.9484L46.5242 8.17174L46.6476 8.29739L46.962 8.6231L47.1292 8.79993L47.5153 9.21871L47.9212 9.66543L48.9083 10.7729L50.5481 12.6714L51.1213 13.3415L52.1959 14.5699L52.7173 15.1515L53.6089 16.1241L53.8198 16.3428L54.182 16.7197L54.3532 16.8965L54.6358 17.171L54.7671 17.2967L54.9582 17.4595L55.1253 17.5573H55.1532L55.2965 17.4549L55.3801 17.3851L55.6308 17.1524L55.7661 17.0221L56.1045 16.6778L56.2836 16.4963L56.6975 16.0543L57.1313 15.5889L58.1742 14.4256L59.9015 12.4387L60.5026 11.7361L61.621 10.4518L62.1583 9.8376L63.0737 8.8232L63.2847 8.59054L63.6548 8.19967L63.826 8.01354L64.1086 7.72504L64.236 7.59475L64.423 7.42258L64.5703 7.32021H64.6141M22.6671 19.4883L22.1138 19.493L20.8959 19.4976L20.267 19.5023L18.8939 19.5116L16.649 19.5302L15.9565 19.5349L14.6629 19.5488L14.0261 19.5535L12.848 19.5674L12.2709 19.5767L11.2002 19.5907L10.6788 19.6L9.71559 19.614L8.78025 19.6326L7.20411 19.6745L6.46379 19.6977L5.26178 19.7489L4.70058 19.7768L3.82892 19.8373L3.4309 19.8699L2.85776 19.949L2.60701 19.9862L2.29655 20.0793L2.08959 20.2328L2.07366 20.2887L2.20103 20.3911L2.29258 20.4376L2.67069 20.5167L2.89358 20.5539L3.56226 20.6191L3.93639 20.647L4.93541 20.6935L5.48069 20.7168L6.85385 20.7493L7.224 20.7587L8.03596 20.7726L8.45786 20.7773L9.37728 20.7866L9.85092 20.7912L10.8858 20.8005L11.4151 20.8052L12.5654 20.8098H13.1584L14.4321 20.8145H16.4859H17.2819H18.7466H19.4591L20.7645 20.8098H21.4014L22.5556 20.8005H23.1168L24.1318 20.7912L24.6213 20.7866L25.5049 20.7773L25.9268 20.768L26.687 20.754L27.0492 20.7447L27.694 20.7261L28.0005 20.7168L28.5378 20.6935L29.0513 20.6702L29.7955 20.6051L30.1259 20.5679L30.5597 20.4795L30.7468 20.4329L30.9418 20.3166L31.0175 20.2561L31.0453 20.1119V20.0328L30.9458 19.9025L30.8702 19.842L30.5717 19.7443L30.3926 19.6977L29.8194 19.6279L29.497 19.5954L28.5856 19.5488L28.3308 19.5395L27.7497 19.5209L27.4472 19.5162L26.7547 19.5023L26.3965 19.4976L25.5845 19.493L25.1626 19.4883H24.2273H23.7417M50.2576 6.28254L50.8705 6.99914L52.0288 8.31135L52.586 8.93487L53.5412 9.97254L53.7601 10.2098L54.1462 10.61L54.3293 10.8008L54.6278 11.094L54.7671 11.2289L54.9661 11.4011L55.1373 11.5081H55.1651L55.3084 11.4057L55.392 11.3359L55.6388 11.1033L55.7741 10.973L56.1084 10.6286L56.2876 10.4472L56.7015 10.0051L57.1353 9.53978L58.1742 8.37648L59.9015 6.38957L60.5026 5.68693L61.621 4.40266L62.1583 3.78844L63.0737 2.77404L63.2847 2.54138L63.6548 2.15051L63.826 1.96437L64.1086 1.67588L64.236 1.54559L64.423 1.37342L64.5703 1.27105H64.6141L64.6897 1.39204L64.7255 1.46649L64.7852 1.71776L64.8768 2.79264V3.12303L64.7136 3.77913L64.6499 3.9513L64.4549 4.34681L64.3434 4.55155L64.029 5.03083L63.8578 5.28677L63.4081 5.89168L63.1653 6.20809L62.5523 6.97122L62.222 7.37139L61.4259 8.32531L59.9931 10.0051L55.1134 15.696L50.4407 10.2238L49.8954 9.57702L48.98 8.50213L48.5541 7.99493L47.8615 7.1527L47.5391 6.75252L47.0337 6.10108L46.8028 5.79396L46.4605 5.28211L46.3053 5.04015L46.0904 4.62136L45.9988 4.42126L45.8834 4.05367L45.7719 2.89967V1.05235M22.48 0.828992L23.3994 0.83365L25.1427 0.852267L25.9905 0.85691L27.5467 0.880185L28.295 0.894144L29.6005 0.917404L30.2174 0.936021L31.2204 0.968597L31.6782 0.982556L32.315 1.02443L32.4503 1.03373L32.6414 1.05701L32.8046 1.08957L32.916 1.14076L33.1031 1.46184L33.1866 1.65726L33.314 2.20635L33.3737 2.4995L33.4414 3.18817L33.4692 3.54647L33.4852 4.29563V4.67254L33.4414 5.4031L33.4135 5.75674L33.314 6.38491L33.2583 6.68273L33.1031 7.12943L32.8046 7.50169L32.7767 7.51565L32.6374 7.53891L32.5498 7.54821L32.2991 7.57149L32.0244 7.59009L31.1727 7.62733L30.703 7.64594L29.509 7.6785L28.8761 7.69246L27.4035 7.71574L26.6353 7.7297L24.9437 7.74831L24.0721 7.75296L22.2173 7.76692L20.3307 7.77623L16.3346 7.78088L14.3405 7.77623L10.4798 7.75761L9.54445 7.74831L7.78521 7.7297L6.92948 7.72038L5.36924 7.69712L4.617 7.68316L3.31548 7.65524L2.70651 7.64128L1.72341 7.60405L1.27763 7.58545L0.676634 7.54357L0.553249 7.53426L0.386077 7.511L0.314437 7.49704L0.266677 7.47376L0.226873 7.43189L0.163188 7.12477L0.13134 6.9433L0.0796082 6.40353L0.0557282 6.11504L0.019896 5.41706L0 4.26771V3.71398L0.031836 2.8671L0.0517441 2.48089L0.135324 1.92716L0.183084 1.68519L0.326377 1.36412L0.628861 1.08957L0.656725 1.07561L0.79205 1.05701L0.875642 1.04305L1.11843 1.02443L1.3851 1.00117L2.21297 0.968597L2.67069 0.94998L3.8329 0.917404L4.44983 0.903445L5.88667 0.880185L6.63495 0.870884L8.29069 0.852267L9.13846 0.842951L10.9534 0.828992L12.7962 0.815033L16.7167 0.81039H18.675M15.6023 3.13233L13.5047 3.14163L12.4898 3.14629L10.647 3.16491L9.7554 3.17421L8.17527 3.20213L7.41904 3.21609L6.10956 3.25332L5.48866 3.27192L4.46177 3.31846L3.98415 3.34638L3.24782 3.40221L2.91746 3.43014L2.48761 3.49062L2.18909 3.59765L2.10551 3.75586L2.05377 4.0211V4.14673L2.23287 4.35147L2.35627 4.44454L2.84582 4.59344L2.99308 4.63066L3.35528 4.69116L3.55032 4.71908L4.01997 4.77025L4.26674 4.79353L4.85183 4.83541L5.16228 4.85402L5.87075 4.88658L6.24489 4.90054L7.09266 4.92382L7.53446 4.93778L8.5295 4.95174L9.04693 4.96104L10.1972 4.975L10.7942 4.97965L12.1117 4.98431L12.7923 4.98896L14.2848 4.99361H16.7406H17.6162H19.2163H19.9884L21.3855 4.98896H22.0621L23.272 4.98431H23.8571L24.8999 4.975L25.3975 4.97035L26.2811 4.96104L26.703 4.95639L27.4353 4.93778L27.7856 4.93312L28.3905 4.90986L28.6731 4.90054L29.1587 4.87262L29.6125 4.84006L30.2214 4.76095L30.4841 4.71442L30.7826 4.59344L30.906 4.52829L31.0055 4.36543L31.0413 4.27702L31.0453 4.06297V3.94664L31.0055 3.76052L30.9737 3.67211L30.7826 3.5325L30.6632 3.46736L30.2214 3.36499L29.9587 3.32312L29.1587 3.25332L28.9318 3.23936L28.3905 3.21609L28.104 3.20213L27.4353 3.18817L27.085 3.17887L26.2811 3.16491L25.8592 3.16025L24.8999 3.15095L24.3984 3.14629L23.272 3.14163L22.6909 3.13699H21.3855L20.7088 3.13233H19.2163H16.7406H15.6023Z" fill="#AC8869"/>
<path d="M208.079 58.5799L207.96 58.3937L207.649 57.8912L207.482 57.6213L207.084 56.9792L206.877 56.6395L206.412 55.881L206.169 55.4901L205.647 54.6433L205.11 53.7778L203.952 51.8932L202.193 49.0408L201.619 48.1055L200.545 46.4024L200.29 45.9976L199.809 45.2484L199.578 44.8855L199.152 44.2387L198.949 43.9316L198.599 43.4058L198.431 43.1591L198.161 42.7776L198.037 42.6008L197.858 42.3774L197.715 42.2332H197.695L197.655 42.396L197.635 42.503L197.6 42.8707L197.58 43.0754L197.548 43.6152L197.532 43.9083L197.504 44.6063L197.492 44.9739L197.468 45.8068L197.456 46.2349L197.44 47.1795L197.416 50.3297V58.4403L198.71 59.6315L200.004 60.8227H197.217L194.431 60.8273L195.53 59.785L196.624 58.7381L196.644 49.2083L196.648 47.8635L196.624 45.4392L196.616 44.8669L196.597 43.8059L196.585 43.2941L196.557 42.3867L196.541 41.954L196.505 41.2141L196.485 40.8698L196.445 40.3253L196.421 40.0787L196.378 39.753L196.302 39.5343L196.202 39.4971L195.824 39.2412L195.184 38.7293L195.012 38.5758L194.841 38.3664L194.79 38.2779L194.905 38.1663L195.004 38.1197L195.474 38.0732L195.613 38.0639L195.976 38.0546L196.64 38.0453L198.853 38.0313L204.183 46.6397L204.915 47.8217L206.276 49.9807L206.603 50.4972L207.212 51.4418L207.506 51.9025L208.04 52.7215L208.298 53.1077L208.74 53.7731L208.951 54.0849L209.289 54.5688L209.444 54.7875L209.659 55.0713L209.835 55.2482H209.854L209.898 55.0993L209.918 55.0015L209.958 54.6712L209.978 54.485L210.014 53.9918L210.03 53.7266L210.061 53.0937L210.089 52.433L210.129 50.7671L210.157 47.9194L210.161 40.5906L208.863 39.3249L207.566 38.0546H210.352H213.138L211.841 39.3249L210.543 40.5906L210.547 50.6834V51.4279L210.539 52.8378L210.535 53.5218L210.519 54.8015L210.511 55.4203L210.487 56.5464L210.475 57.0862L210.444 58.0447L210.428 58.5007L210.388 59.2732L210.368 59.6361L210.324 60.2038L210.3 60.4598L210.248 60.8041L210.169 61.0554L210.117 61.0926L209.886 60.9437L209.751 60.8367L209.397 60.4411L209.206 60.2178L208.772 59.6268L208.549 59.3104M217.592 60.8134L217.242 60.711L216.657 60.5249L216.382 60.4318L215.932 60.2457L215.725 60.1526L215.395 59.9479L215.244 59.8409L215.017 59.5942L214.913 59.464L214.766 59.1522L214.702 58.9893L214.627 58.5938L214.591 58.3798L214.563 57.8772L214.555 56.9745L214.559 56.458L214.583 55.7507L214.599 55.4529L214.659 55.1458L214.694 55.0388L214.806 55.0713L215.053 55.4529L215.116 55.5785L215.347 55.9508L215.478 56.1509L215.805 56.6302L216.947 58.189L217.246 58.5799L217.751 59.1429L217.994 59.3942L218.468 59.7292L218.714 59.8781L219.276 60.0642L220.354 60.2457L220.776 60.2922L221.417 60.3201H221.711L222.181 60.2271L222.4 60.1619L222.798 59.9246L223.427 59.3709L223.749 59.0405L224.275 58.1192L224.736 56.6069L224.772 56.3277L224.78 55.7972L224.772 55.5367L224.681 55.0434L224.617 54.7968L224.402 54.3175L224.283 54.0756L223.936 53.5916L223.745 53.3497L223.252 52.8425L222.985 52.5865L222.332 52.0375L221.986 51.7583L221.154 51.1534L219.701 50.1622L219.192 49.8272L218.308 49.199L217.886 48.8872L217.162 48.2916L216.816 47.9985L216.247 47.4215L215.976 47.1376L215.55 46.5746L215.351 46.2954L215.057 45.7277L214.925 45.4439L214.754 44.8576L214.682 44.5644L214.627 43.9502L214.663 42.9823L214.718 42.4984L214.969 41.6189L215.12 41.1955L215.546 40.437L215.781 40.0694L216.366 39.4459L216.672 39.1481L217.393 38.6642L217.767 38.4408L218.599 38.1151L219.029 37.9708L219.96 37.808L220.434 37.7521L221.441 37.7707L223.009 38.0127L223.606 38.157L224.72 38.5478L224.971 38.6455L225.381 38.841L225.795 39.0969L225.891 39.1853L226.07 39.511L226.161 39.6925L226.32 40.1671L226.476 40.665L226.687 41.847L226.774 42.4286L226.79 43.3965L226.778 43.6059L226.707 43.8944L226.515 44.0805H226.396L226.205 43.899L226.074 43.4663V43.3034L225.95 42.9032L225.871 42.6938L225.616 42.2192L225.329 41.7353L224.497 40.7116L224.06 40.2137L223.12 39.3901L222.89 39.2086L222.456 38.934L221.871 38.6921L221.397 38.5897L220.529 38.613L220.111 38.6595L219.367 38.9387L219.013 39.1062L218.42 39.5948L218.145 39.86L217.731 40.5022L217.548 40.8372L217.345 41.5817L217.27 41.9633L217.301 42.759L217.349 43.1591L217.644 43.9595L218.412 45.0949L218.563 45.2577L219.065 45.6951L219.343 45.9278L220.036 46.449L222.404 48.0404L222.81 48.287L223.542 48.7709L223.896 49.0082L224.521 49.4875L225.122 49.9621L226.03 50.9207L226.44 51.4046L226.997 52.4237L227.491 54.0802L227.574 54.5967L227.483 55.7274L227.399 56.2905L227.013 57.4026L226.79 57.947L226.169 58.9009L225.043 60.0037L224.856 60.1294L224.382 60.3527L224.127 60.4551L223.546 60.6366L222.941 60.8087L221.54 61.0135L220.832 61.0879L219.427 61.0833L218.746 61.0554M106.669 60.4411V60.3341L106.959 60.0084L107.664 59.5198L108.659 58.9893V49.4317V39.874L107.664 39.3435L107.457 39.2318L107.146 39.0318L107.007 38.934L106.828 38.7619L106.756 38.6781L106.708 38.5339L106.7 38.4641L106.784 38.3477L106.84 38.2966L107.047 38.2128L107.17 38.1756L107.5 38.129L107.684 38.1104L108.137 38.0965L108.957 38.1244L111.246 38.264L114.597 46.2908L115.059 47.3936L115.918 49.4084L116.125 49.8877L116.512 50.7718L116.703 51.1999L117.041 51.9583L117.204 52.3213L117.491 52.9402L117.626 53.2333L117.845 53.6847L117.944 53.8894L118.092 54.1547L118.211 54.3175H118.231L118.33 54.1547L118.394 54.0476L118.577 53.6847L118.677 53.48L118.931 52.9402L119.067 52.6517L119.381 51.9583L119.544 51.5954L119.911 50.7718L120.098 50.3437L120.504 49.4084L121.825 46.2908L125.176 38.264L127.564 38.1477L129.953 38.0313L128.858 39.0969L127.763 40.1625V49.7993V51.1254L127.787 53.5404L127.795 54.1174L127.819 55.1784L127.831 55.6902L127.859 56.6069L127.871 57.0396L127.907 57.7842L127.923 58.1332L127.958 58.6776L127.978 58.9195L128.022 59.2406L128.086 59.436H128.173L128.54 59.6361L129.18 60.1201L129.356 60.2736L129.483 60.4877L129.491 60.5342L129.435 60.604L129.391 60.6412L129.216 60.6924L129.113 60.7157L128.806 60.7482L128.635 60.7622L128.177 60.7808L127.931 60.7901L127.31 60.7948L126.171 60.7994H122.39L123.493 59.7432L124.599 58.6869L124.488 50.567L124.38 42.4519L120.89 50.7113L120.408 51.8467L119.505 53.9174L119.286 54.4106L118.876 55.3226L118.677 55.76L118.315 56.5464L118.139 56.9187L117.829 57.5561L117.686 57.854L117.443 58.3193L117.331 58.5287L117.168 58.8032L117.025 58.9707H116.997L116.882 58.8079L116.814 58.7055L116.623 58.3472L116.516 58.1471L116.257 57.6166L116.121 57.3281L115.803 56.6488L115.64 56.2905L115.274 55.4762L115.087 55.0527L114.685 54.1314L113.387 51.0603L112.941 49.9714L112.094 47.9892L111.891 47.5145L111.508 46.6444L111.325 46.2256L110.987 45.4718L110.824 45.1135L110.537 44.5039L110.402 44.2201L110.179 43.7734L110.076 43.5733L109.924 43.3127L109.789 43.1498H109.765L109.721 43.3081L109.701 43.4151L109.662 43.7687L109.638 43.9688L109.602 44.49L109.586 44.7738L109.554 45.4485L109.522 46.1605L109.483 47.9426L109.455 50.9812V58.8125L110.45 59.436L110.649 59.5617L110.947 59.7804L111.083 59.8874L111.262 60.0735L111.333 60.1619L111.381 60.3108L111.389 60.3853L111.309 60.5063L111.254 60.5621L111.043 60.6505L110.923 60.6924L110.581 60.7529L110.394 60.7808L109.92 60.8134L109.057 60.832H108.726L108.129 60.7994L107.843 60.7808L107.369 60.7157L107.154 60.6831L106.856 60.5947L106.736 60.5482M131.648 59.5524L131.911 59.2918L132.396 58.5612L132.52 58.3519L132.771 57.8353L132.902 57.5561L133.18 56.8814L133.324 56.5185L133.642 55.6483L133.805 55.1877L134.176 54.0849L134.371 53.5032L134.808 52.1305L135.553 49.7434L135.915 48.5662L136.56 46.3699L136.715 45.8394L136.99 44.8483L137.125 44.3643L137.356 43.4895L137.467 43.0661L137.65 42.3309L137.738 41.9819L137.861 41.4096L137.917 41.1443L137.981 40.7628L137.996 40.437L137.945 40.223L137.774 39.6413L137.507 38.8177L137.443 38.6269L137.407 38.371L137.411 38.2593L137.575 38.1384L137.682 38.0872L138.104 38.0685L139.107 38.1197L141.002 38.264L144.146 48.2684L144.472 49.306L145.041 51.0882L145.312 51.9397L145.786 53.3776L146.013 54.0616L146.411 55.2016L146.602 55.7367L146.936 56.6209L147.095 57.035L147.386 57.7004L147.529 58.0122L147.792 58.5054L148.556 59.5524L149.822 60.832L145.857 60.818L145.416 60.8134L144.679 60.8087L144.333 60.8041L143.776 60.7901L143.513 60.7808L143.115 60.7529L142.932 60.7389L142.677 60.6924L142.566 60.6691L142.438 60.6086L142.387 60.5761L142.371 60.4923L142.645 60.134L142.852 59.9525L143.306 59.6129L143.839 59.2965L143.915 59.2685L143.983 59.0498L144.003 58.9149L143.963 58.4821L143.931 58.2402L143.784 57.5934L143.441 56.3742L142.602 53.6195H138.904H135.202L134.458 56.1788L134.371 56.4766L134.227 56.9792L134.164 57.2165L134.064 57.6073L133.977 57.9703L133.925 58.4449L133.921 58.6543L134.036 58.9335L134.398 59.3197L134.585 59.4779L135.027 59.7292L135.577 59.9014H135.716L136.002 60.0363L136.321 60.3667L136.361 60.4411L136.217 60.5621L136.11 60.6226L135.692 60.711L135.449 60.7482L134.769 60.7994L133.475 60.832H130.382L131.648 59.5524ZM142.092 52.4144V52.3539L142.06 52.1445L142.036 52.0281L141.965 51.7071L141.885 51.3674L141.63 50.4321L141.487 49.9296L141.149 48.7802L140.97 48.1939L140.588 46.9701L140.393 46.3605L140.014 45.2019L139.827 44.6435L139.489 43.6803L139.334 43.2383L139.087 42.6194L139.031 42.4937L138.948 42.3216L138.864 42.2192H138.844L138.777 42.3123L138.741 42.3728L138.649 42.5775L138.55 42.8055L138.283 43.55L138.14 43.9642L137.813 44.9925L137.292 46.7561L137.113 47.3796L136.779 48.5615L136.615 49.1339L136.329 50.125L136.197 50.5857L135.998 51.279L135.827 51.8513L135.799 51.9537L135.915 52.1166L136.006 52.1957L136.381 52.3213L136.603 52.3771L137.256 52.4702L138.574 52.5772L138.976 52.5958L139.732 52.647L140.094 52.6703L140.723 52.7168L141.017 52.7401L141.447 52.782L141.794 52.8285L141.877 52.8564L142.005 52.7447L142.06 52.6703M151.004 60.134L151.211 59.9525L151.641 59.6222L152.114 59.329L152.142 59.3197L152.186 59.1057L152.21 58.9707L152.253 58.524L152.277 58.2727L152.317 57.6166L152.337 57.2677L152.369 56.4301L152.385 55.9927L152.413 55.0015L152.425 54.4897L152.448 53.3683L152.476 49.6597V49.092V48.059V47.5564L152.472 46.649V45.7649L152.46 44.3318L152.452 43.6663L152.425 42.6147L152.409 42.1308L152.361 41.3863L152.333 41.0512L152.261 40.5487L152.222 40.3253L152.118 39.9996L151.664 39.3528L151.438 39.1388L151.087 38.7246L150.848 38.3059V38.2733L150.956 38.2174L151.028 38.1942L151.266 38.1477L151.533 38.1058L152.381 38.0546L152.847 38.036L153.985 38.022H154.578L155.871 38.0453L156.52 38.0592L157.83 38.1151L158.47 38.1477L159.653 38.2314L160.218 38.2779L161.137 38.3896L161.344 38.4175L161.686 38.478L162.069 38.5804L162.622 38.7712L163.537 39.3901L163.963 39.7297L164.62 40.5813L164.914 41.028L165.312 42.0377L165.476 42.5542L165.603 43.6431L165.635 44.1922L165.491 45.281L165.388 45.8208L164.97 46.8352L164.723 47.3284L164.027 48.1893L162.662 49.2269L162.435 49.3479L162.057 49.5713L161.881 49.6736L161.631 49.8504L161.523 49.9342L161.424 50.0459L161.483 50.1203H161.515L161.627 50.2088L161.686 50.2692L161.846 50.4693L162.017 50.6927L162.475 51.4139L162.717 51.8141L163.279 52.8145L164.174 54.5176L164.481 55.1179L165.117 56.2951L165.44 56.8675L166.057 57.8958L166.355 58.3798L166.877 59.1382L167.474 59.8548L168.56 60.8041L166.144 60.818L163.724 60.832L161.368 55.6111L161.137 55.1039L160.723 54.2105L160.524 53.7871L160.174 53.0612L160.003 52.7168L159.7 52.1352L159.553 51.8606L159.29 51.4139L159.036 50.9951L158.606 50.4926L158.013 50.1157L157.798 50.0552L157.551 49.9575L157.46 49.9156L157.483 49.8318L157.527 49.79L157.846 49.6969L158.673 49.5201L159.27 49.4037L160.262 48.8965L160.719 48.5987L161.428 47.7472L161.742 47.2772L162.144 46.1046L162.391 44.0107V43.5221L162.347 42.7683L162.315 42.4239L162.176 41.8609L162.092 41.5957L161.822 41.1071L161.229 40.3207L160.974 40.0276L160.544 39.6134L160.329 39.4319L159.879 39.1993L159.641 39.1016L159.044 39.0085L157.846 38.962H155.625V48.9291V58.8916L156.719 59.8455L157.814 60.8041H154.033H153.611L152.91 60.7994L152.58 60.7948L152.046 60.7808L151.8 60.7715L151.418 60.7482L151.246 60.7343L151.004 60.6924L150.9 60.6691L150.781 60.6086L150.733 60.5761L150.721 60.4923L150.733 60.3993M173.933 60.4411V60.3341L174.224 60.0084L174.928 59.5198L175.924 58.9893V48.9756V38.962H173.941H173.464L172.807 38.9992L172.516 39.0364L172.122 39.2179L171.939 39.3389L171.645 39.7763L171.147 40.8232L171.024 41.1071L170.793 41.5771L170.682 41.7911L170.479 42.1261L170.379 42.275L170.208 42.4705L170.124 42.5496L169.977 42.6054L169.909 42.6194L169.798 42.5356L169.742 42.4798L169.663 42.2611L169.627 42.1354L169.583 41.7818L169.555 41.0931V40.6976L169.559 40.0508L169.567 39.7484L169.639 39.2737L169.691 39.0597L169.898 38.7293L170.029 38.5804L170.443 38.371L170.686 38.2779L171.378 38.1616L171.768 38.1151L172.807 38.0639L173.09 38.0546L173.738 38.0406L174.073 38.036L174.833 38.0313H175.223H176.099H177.559H185.078V40.5906V40.9442L185.062 41.5864L185.054 41.8888L185.026 42.396L185.006 42.6287L184.966 42.9498L184.895 43.1498H184.871L184.744 42.9823L184.668 42.88L184.457 42.5356L183.665 41.0559L183.41 40.5487L183.032 39.874L182.849 39.5808L182.491 39.2458L182.296 39.1109L181.786 39.0038L180.66 38.962H178.71V48.9524V58.9475L179.904 59.6687L180.23 59.8688L180.747 60.2411L180.855 60.3295L181.002 60.4691L181.098 60.6133V60.6412L180.815 60.6971L180.632 60.725L180.047 60.7669L179.721 60.7855L178.905 60.8134L177.516 60.832H177.022L176.127 60.7994L175.697 60.7808L174.984 60.7157L174.662 60.6831L174.216 60.5947L174.033 60.5482M186.869 60.134L187.1 59.9432L187.478 59.6175L187.653 59.4547L187.932 59.1336L188.059 58.9614L188.25 58.5473L188.338 58.3193L188.461 57.7283L188.513 57.3979L188.58 56.5371L188.608 56.0671L188.636 54.8433L188.644 54.1826V52.5121V52.0654L188.64 51.0649L188.632 49.4084L188.592 40.3626L187.331 39.2039L186.073 38.0406L189.755 38.036H190.22L191.016 38.0499L191.39 38.0639L192.003 38.1058L192.286 38.129L192.72 38.1942L192.915 38.2314L193.174 38.3291L193.281 38.3803L193.365 38.5106L193.385 38.5758L193.301 38.734L193.241 38.8177L192.994 39.0131L192.441 39.3435L191.446 39.874V49.2874V58.7008L192.541 59.7525L193.635 60.7994H189.854H189.432L188.724 60.7948H188.393L187.856 60.7808L187.609 60.7715L187.231 60.7482L187.06 60.7343L186.825 60.6924L186.722 60.6691L186.606 60.6086L186.562 60.5761L186.559 60.4923L186.574 60.3993M132.854 30.0325L132.707 29.7952L132.345 29.2182L132.154 28.911L131.712 28.2038L131.258 27.4686L130.183 25.7376L126.753 20.1956L122.788 13.7602L122.681 22.2616L122.569 30.7677L123.676 31.824L124.778 32.8802L121.992 32.8849L119.206 32.8942L120.201 31.9822L120.476 31.7309L120.993 31.3354L121.109 31.2516L121.3 31.1399L121.495 31.0608H121.515L121.554 30.8607L121.574 30.7305L121.61 30.2884L121.63 30.0371L121.662 29.3857L121.678 29.032L121.706 28.1898L121.718 27.7431L121.741 26.7427L121.753 26.2215L121.769 25.0815L121.793 21.2938V11.5313L120.5 10.7077L119.206 9.87946L121.328 9.73522L121.913 9.69798L122.963 9.77244L123.198 9.80035L123.568 9.88412L123.915 10.047L123.946 10.0795L124.114 10.3122L124.213 10.4518L124.504 10.8892L124.663 11.1265L125.061 11.7407L125.272 12.0665L125.765 12.8389L126.02 13.2391L126.585 14.1371L126.88 14.5978L127.509 15.6029L129.555 18.902L130.267 20.056L131.588 22.1639L131.903 22.6665L132.492 23.5924L132.778 24.0391L133.296 24.8395L133.543 25.2164L133.973 25.8679L134.176 26.1703L134.502 26.6449L134.653 26.859L134.86 27.1382L135.027 27.315H135.047L135.087 27.1615L135.107 27.0591L135.143 26.7147L135.163 26.524L135.194 26.0121L135.21 25.7376L135.238 25.0815L135.266 24.3881L135.302 22.6525L135.326 19.6838V12.0386L134.032 10.8473L132.739 9.65611L135.425 9.65146H135.776L136.373 9.67007L136.655 9.68402L137.113 9.73056L137.32 9.75383L137.638 9.82829L137.778 9.87016L137.953 9.96788L138.024 10.0237L138.06 10.1493V10.2192L137.957 10.3774L137.885 10.4565L137.642 10.6426L137.125 10.9544L136.138 11.4802L136.03 22.2756L136.018 23.2388L135.998 24.9605L135.983 25.7841L135.955 27.2313L135.939 27.9199L135.903 29.1065L135.883 29.6695L135.839 30.6095L135.815 31.0515L135.764 31.7588L135.736 32.0799L135.676 32.5685L135.644 32.7825L135.577 33.0571L135.457 33.2478L135.393 33.2758L135.107 33.0524L134.944 32.8988L134.502 32.3777L134.267 32.0892L133.722 31.3354L133.443 30.9399M167.701 23.8716L166.889 22.5594L165.388 20.163L165.026 19.5907L164.357 18.5391L164.035 18.0319L163.45 17.1245L163.171 16.6918L162.689 15.9519L162.463 15.6076L162.096 15.0678L161.929 14.8258L161.702 14.5047L161.527 14.3093H161.456L161.332 14.4396L161.277 14.528L161.177 14.8444L161.133 15.0259L161.058 15.5424L161.026 15.8263L160.974 16.5429L160.95 16.9291L160.926 17.8644L160.914 18.3576L160.91 19.5116V20.1165L160.926 21.4985L160.978 23.8391L161.161 30.8189L162.471 31.7495L163.784 32.6801L162.291 32.8244L161.881 32.8663L160.799 32.8849L159.306 32.8244L157.814 32.6801L159.107 31.8519L160.401 31.0283V21.2798V11.5313L159.107 10.7077L157.814 9.87946L159.935 9.73522L160.52 9.69798L161.591 9.79105L161.834 9.82363L162.22 9.926L162.594 10.1168L162.634 10.154L162.805 10.3867L162.908 10.5309L163.199 10.959L163.358 11.1963L163.756 11.7966L163.967 12.1177L164.449 12.8668L164.703 13.2577L165.261 14.1278L165.547 14.5792L166.164 15.5517L168.158 18.7392L168.847 19.8559L170.136 21.908L170.447 22.3966L171.024 23.3086L171.307 23.7507L171.816 24.5417L172.063 24.9186L172.489 25.5747L172.688 25.8772L173.014 26.3657L173.165 26.5891L173.38 26.8916L173.559 27.1103L173.587 27.1335L173.639 27.0358L173.667 26.9614L173.715 26.6868L173.734 26.5286L173.778 26.0819L173.798 25.8399L173.83 25.235L173.85 24.914L173.874 24.1601L173.89 23.7646L173.906 22.8712L173.918 22.4105L173.925 21.3868L173.933 19.7117V12.0386L172.64 10.8473L171.346 9.65611L174.033 9.65146H174.383L174.98 9.67007L175.263 9.68402L175.721 9.73056L175.928 9.75383L176.246 9.82829L176.385 9.87016L176.56 9.96788L176.632 10.0237L176.668 10.1493V10.2192L176.564 10.3774L176.493 10.4565L176.25 10.6426L175.732 10.9544L174.745 11.4802L174.638 22.2756L174.626 23.2342L174.606 24.9419L174.594 25.7655L174.562 27.208L174.546 27.8967L174.511 29.0832L174.491 29.6463L174.447 30.5909L174.423 31.0329L174.371 31.7402L174.347 32.0706L174.284 32.5592L174.256 32.7779L174.184 33.0524L174.069 33.2478L174.037 33.2618L173.858 33.0896L173.746 32.9733L173.424 32.5638L173.245 32.3312L172.799 31.7123L172.56 31.3773L172.007 30.5676L171.72 30.1441L171.076 29.1763L170.745 28.6737L170.033 27.5709L169.301 26.4355M216.72 32.5452L214.73 31.7495L214.611 28.9576L214.491 26.1657L215.697 28.3759L216.071 29.06L216.875 30.1674L217.285 30.6793L218.173 31.4377L218.627 31.7774L219.602 32.1962L221.174 32.4475H221.703L222.643 32.1869L223.089 32.0147L223.829 31.4377L224.171 31.112L224.681 30.2558L225.13 28.697L225.17 28.4178V27.878L225.154 27.6128L225.047 27.0963L224.979 26.8404L224.76 26.3332L224.637 26.0866L224.298 25.5887L224.115 25.3374L223.65 24.8395L223.403 24.5882L222.814 24.081L222.499 23.8251L221.775 23.3039L220.525 22.4896L219.896 22.1034L218.802 21.3589L218.28 20.9913L217.397 20.2794L216.979 19.9211L216.29 19.2184L215.972 18.8695L215.482 18.1715L215.256 17.8225L214.949 17.1105L214.818 16.7522L214.682 16.017L214.639 15.6494L214.674 14.877L214.909 13.6718L215.049 13.1786L215.463 12.3084L215.689 11.8943L216.27 11.1824L216.577 10.8473L217.301 10.2982L217.679 10.047L218.527 9.67472L218.965 9.50721L219.92 9.31177L220.41 9.23732L221.449 9.22802L221.978 9.24664L223.085 9.43276L224.8 9.9353L225.067 10.0377L225.52 10.2378L225.735 10.3355L226.09 10.5449L226.42 10.7589L226.834 11.308L227.009 11.6151L227.172 12.4806L227.204 12.7226L227.232 13.2949L227.24 14.3L227.228 15.9286L226.559 14.7653L226.472 14.6071L226.189 14.1744L226.034 13.9464L225.664 13.4299L224.438 11.8571L224.155 11.5127L223.666 11.0055L223.427 10.7775L222.989 10.4704L222.774 10.3355L222.32 10.1912L221.56 10.1121H221.063L220.191 10.2657L219.777 10.368L219.084 10.7264L218.758 10.9264L218.245 11.4848L217.679 12.5411L217.556 12.8854L217.413 13.5136L217.357 13.8161L217.369 14.3931L217.397 14.6816L217.588 15.2446L217.707 15.5238L218.105 16.1054L218.332 16.4032L218.961 17.0361L219.307 17.3618L220.195 18.0784L220.677 18.4553L221.847 19.2929L223.952 20.7214L224.629 21.1728L225.684 22.0243L226.161 22.4478L226.866 23.3086L227.176 23.746L227.582 24.6999L227.928 26.3192L228 26.9986L227.857 28.2456L227.741 28.8459L227.26 29.9208L226.985 30.4327L226.217 31.3074L225.803 31.7169L224.792 32.3684L224.263 32.6615L223.061 33.0617L222.44 33.2246L221.09 33.3455L220.402 33.3735L218.953 33.1873L218.221 33.0571M84.0811 31.9263L85.1757 30.9724V21.2798V11.5872L84.0811 10.624L82.9866 9.66076L90.1509 9.77244L97.3152 9.87946L97.4346 12.5551L97.4505 12.9227L97.4545 13.5927V13.9138L97.4266 14.4443L97.4067 14.6862L97.351 15.0212L97.2356 15.2306H97.1918L97.0246 15.0445L96.9291 14.9282L96.6823 14.5466L96.551 14.3372L96.2604 13.8068L95.7987 12.904L94.6803 10.5774H91.5081H88.3319L88.4474 15.5796L88.5588 20.5818L90.4494 20.7214L90.8992 20.7586L91.5201 20.7633L91.7987 20.754L92.1887 20.6051L92.3678 20.5074L92.6663 20.1305L93.1758 19.2091L93.4067 18.7578L93.8126 18.0412L93.9042 17.8923L94.0435 17.6875L94.1708 17.5572H94.1908L94.2305 17.8411L94.2504 18.0226L94.2823 18.6135L94.2982 18.9392L94.3181 19.7582L94.3301 21.1542V24.7511L93.3071 22.9922L93.0644 22.5781L92.6942 22.0197L92.5151 21.7777L92.1609 21.5078L91.9698 21.4008L91.4803 21.3356L90.4215 21.3729L88.5588 21.5125L88.4434 26.5938L88.4354 27.0637L88.4235 27.892L88.4195 28.2922V28.9902L88.4235 29.6556L88.4713 30.6234L88.5031 31.0562L88.6106 31.6099L88.8414 32.052L88.913 32.1078L89.2832 32.2009L89.5021 32.2474L90.1071 32.3219L90.4295 32.3591L91.1937 32.4056L92.4236 32.4382L95.4962 32.4475L97.1361 29.6183L97.3629 29.2321L97.7888 28.5341L97.9918 28.2084L98.3421 27.678L98.5052 27.436L98.7441 27.1289L98.9351 26.9753L98.959 26.9986L98.963 27.2731L98.959 27.4406L98.9192 27.9478L98.8953 28.227L98.8157 28.9017L98.6605 30.0371L98.2266 32.9128L90.6046 32.8988L82.9866 32.8849L84.0811 31.9263ZM100.499 32.2148L100.718 32.0333L101.18 31.6285L101.697 31.1539L101.729 31.1213L101.785 30.898L101.813 30.763L101.861 30.3396L101.884 30.1023L101.924 29.4834L101.944 29.1484L101.972 28.3434L101.988 27.9199L102.008 26.9381L102.016 26.4262L102.028 25.2769L102.032 24.6813V23.3784L102.02 21.2472L101.936 11.7407L100.818 10.6938L99.7033 9.65146H105.077H105.817L107.278 9.68868L107.994 9.71196L109.303 9.79105L109.92 9.83293L110.923 9.94462L111.146 9.97253L111.512 10.033L111.918 10.1261L112.464 10.3076L113.367 10.9078L113.785 11.2428L114.434 12.099L114.728 12.5504L115.118 13.5741L115.282 14.1046L115.409 15.2213L115.437 15.7844L115.298 16.9058L115.194 17.4595L114.78 18.5111L114.537 19.0184L113.849 19.9118L112.5 20.982L112.153 21.1728L111.711 21.4473L111.524 21.573L111.369 21.7823L111.321 21.8894L111.417 22.1267L111.795 22.6199L111.891 22.7316L112.205 23.2248L112.376 23.504L112.794 24.2532L113.013 24.6534L113.483 25.5654L114.191 27.0079L114.649 27.9851L115.747 29.865L116.014 30.2931L116.512 31.005L117.136 31.7448L118.41 32.9314L115.895 32.8058L113.379 32.6801L111.047 27.5616L110.768 26.9428L110.295 25.919L110.076 25.4444L109.705 24.672L109.53 24.3137L109.232 23.76L109.093 23.504L108.842 23.1271L108.718 22.9596L108.492 22.7223L108.376 22.6153L108.141 22.485L107.285 22.2989L107.051 22.2756L106.688 22.2011L106.525 22.1593L106.302 22.0569L106.207 22.0057L106.115 21.894L106.087 21.8335L106.123 21.7172L106.159 21.6614L106.314 21.5497L106.406 21.4985L106.677 21.4101L106.828 21.3729L107.202 21.317L107.879 21.2798H108.169L108.683 21.21L108.929 21.1635L109.383 20.982L109.61 20.875L110.052 20.5586L110.74 19.9211L111.043 19.6093L111.453 19.1068L111.632 18.8555L111.843 18.3343L111.93 18.0505L112.006 17.2967L112.022 17.0873L112.034 16.5847L112.042 15.696V15.0538L112.006 14.1278L111.982 13.7137L111.859 13.1088L111.779 12.8342L111.52 12.3875L110.923 11.6989L110.697 11.4709L110.267 11.1405L110.048 10.9916L109.566 10.7961L109.307 10.7124L108.671 10.624L107.441 10.5774H105.077V20.6795V30.7816L106.171 31.8333L107.266 32.8802H103.484H103.063L102.354 32.8756H102.024L101.486 32.8616L101.24 32.8523L100.861 32.8291L100.69 32.8151L100.456 32.7732L100.352 32.7499L100.237 32.6894L100.193 32.6569L100.189 32.5731L100.205 32.4801M138.55 31.8472L138.856 31.6053L139.362 31.005L139.485 30.8282L139.74 30.3675L139.867 30.1162L140.146 29.4648L140.289 29.1111L140.619 28.2177L140.791 27.7338L141.189 26.5333L141.4 25.8865L141.897 24.323L142.773 21.5032L142.94 20.968L143.242 19.9862L143.39 19.5116L143.656 18.6414L143.911 17.7992L144.325 16.4126L144.516 15.7658L144.807 14.7281L144.934 14.2488L145.113 13.495L145.193 13.146L145.272 12.6155L145.304 12.3689V11.9967L145.061 11.187L144.854 10.8148L144.623 10.3169L144.544 10.1028L144.623 9.86085L144.663 9.80967L144.822 9.73987L144.914 9.71196L145.177 9.67938L145.32 9.66542L145.694 9.65146L146.395 9.6468H148.309L151.648 20.2328L152.11 21.6893L152.978 24.3695L153.189 25.007L153.587 26.1936L153.778 26.7706L154.132 27.8036L154.303 28.2968L154.602 29.1437L154.745 29.5439L154.98 30.1767L155.091 30.4652L155.255 30.8561L155.406 31.1353L155.688 31.3493L156.134 31.6983L156.341 31.8658L156.628 32.1264L156.751 32.2474L156.866 32.4382L156.898 32.5219L156.823 32.6476L156.759 32.7081L156.48 32.7825L156.313 32.8151L155.816 32.857L155.537 32.8709L154.809 32.8849L153.436 32.8942L149.455 32.9081L150.574 31.8612L151.692 30.8142L150.813 28.1247L149.933 25.4351L146.172 25.5701L142.407 25.7003L141.654 28.0269L141.447 28.6691L141.121 29.7672L141.053 30.0092L140.958 30.3768L140.898 30.6932V30.7398L141.017 30.8933L141.093 30.9817L141.336 31.2004L142.391 31.9496L143.883 32.8709L140.54 32.8942L137.196 32.9128L138.55 31.8472ZM149.555 23.9554L149.543 23.9135L149.487 23.7367L149.455 23.6297L149.364 23.3319L149.264 23.0108L148.982 22.0709L148.827 21.5636L148.46 20.3538L147.863 18.3623L147.656 17.6736L147.266 16.4265L147.079 15.8402L146.753 14.8724L146.606 14.435L146.383 13.8486L146.335 13.7323L146.267 13.5881L146.208 13.5229L146.196 13.5369L146.136 13.6765L146.104 13.7602L146.005 14.0301L145.901 14.3279L145.603 15.226L145.443 15.7146L145.069 16.8872L144.878 17.4921L144.476 18.781L144.277 19.4278L143.891 20.6842L143.704 21.2938L143.386 22.3733L143.238 22.8712L143.027 23.6157L142.988 23.7739L142.928 23.9973L142.892 24.1881V24.2346L143.163 24.323L143.334 24.3649L143.895 24.4347L144.206 24.4672L144.986 24.5091L146.315 24.537H146.637L147.199 24.5277L147.465 24.5231L147.927 24.5091L148.361 24.4859L148.95 24.4114L149.205 24.3649L149.467 24.2299L149.563 24.1555M178.487 32.2009L178.698 32.0101L179.128 31.7169L179.581 31.5168H179.605L179.645 31.3074L179.669 31.1725L179.709 30.7165L179.725 30.4559L179.76 29.7766L179.78 29.4089L179.808 28.5295L179.824 28.0735L179.848 27.0265L179.86 26.4867L179.88 25.3002L179.904 21.3543V11.1917L178.809 10.5356L178.686 10.4611L178.507 10.3355L178.431 10.275L178.371 10.1773L178.359 10.1307L178.443 10.0563L178.507 10.0191L178.757 9.96322L178.909 9.9353L179.358 9.89342L179.613 9.87016L180.282 9.83759L180.648 9.82363L181.567 9.79105L183.247 9.74918L184.226 9.72592L185.934 9.74918L186.75 9.77244L188.171 9.90273L188.847 9.98184L190.021 10.2378L190.582 10.382L191.554 10.7868L192.015 11.0055L192.819 11.5779L193.205 11.885L193.886 12.6388L194.216 13.039L194.813 14.0022L195.665 15.696L195.8 16.0031L196.023 16.7941L196.123 17.2129L196.27 18.1715L196.401 19.1626L196.453 21.3915L196.441 22.5083L196.214 24.6162L196.139 25.1094L195.94 25.9935L195.562 27.0963L195.287 27.6919L194.726 28.711L194.439 29.1949L193.822 30.0139L193.5 30.3954L192.784 31.0283L192.409 31.3214L191.546 31.7867L191.096 32.0054L190.049 32.3265L189.5 32.4707L188.222 32.6708L187.554 32.7546L186.009 32.8477L183.335 32.8988L182.706 32.8942L181.655 32.8895L181.161 32.8849L180.357 32.8709L179.987 32.8616L179.41 32.8337L179.147 32.8151L178.765 32.7732L178.598 32.7499L178.391 32.6848L178.308 32.6522L178.244 32.5638L178.232 32.5173L178.292 32.4056L178.332 32.3451M190.821 30.1535L191.279 29.6323L191.96 28.5714L192.266 28.0223L192.68 26.752L192.772 26.4123L192.907 25.6678L192.971 25.2769L193.058 24.4161L193.098 23.9647L193.142 22.9643L193.17 21.2798V20.6889L193.126 19.5907L193.094 19.0556L192.994 18.0644L192.875 17.1012L192.449 15.468L192.206 14.6955L191.514 13.4066L190.161 11.8059L189.862 11.5407L189.345 11.1638L189.086 11.0009L188.525 10.7915L188.226 10.7077L187.47 10.6193L187.259 10.6054L186.777 10.5867L185.938 10.5774H183.088V21.331V32.0799L186.252 31.9124L186.622 31.8938L187.247 31.8519L187.546 31.8333L188.035 31.7821L188.501 31.7262L189.158 31.5355L189.46 31.4191L189.97 31.0376L190.224 30.8142M197.99 32.2009L198.201 32.0101L198.63 31.7169L199.084 31.5168H199.108L199.148 31.3121L199.172 31.1818L199.211 30.7305L199.227 30.4792L199.263 29.8091L199.283 29.4508L199.311 28.59L199.327 28.1386L199.351 27.1149L199.363 26.5844L199.383 25.4212L199.407 21.5497V11.5872L198.312 10.624L197.217 9.66076L204.382 9.77244L211.546 9.87946L211.665 12.5551L211.681 12.9227L211.685 13.5927V13.9138L211.657 14.4443L211.638 14.6862L211.582 15.0166L211.466 15.226L211.423 15.2213L211.255 15.0399L211.164 14.9189L210.921 14.5373L210.794 14.3279L210.503 13.7975L210.053 12.8994L208.959 10.5774H205.763H202.563L202.678 15.5796L202.79 20.5818L204.652 20.7214L205.094 20.754L205.711 20.7586L205.986 20.7447L206.392 20.5865L206.583 20.4795L206.925 20.0746L207.538 19.1021L208.561 17.3432V21.0471V24.7511L207.55 23.0155L207.315 22.6153L206.949 22.0662L206.766 21.8242L206.396 21.545L206.197 21.4287L205.675 21.3263L204.565 21.2798H202.591V26.631V31.9822H206.332H210.069L211.347 29.6556L211.661 29.0786L212.223 28.227L212.354 28.0409L212.585 27.7524L212.696 27.6175L212.887 27.4453L212.975 27.3755L213.11 27.3197L213.17 27.3103L213.246 27.3895L213.273 27.4453L213.277 27.6593L213.194 28.1433L213.166 28.2549L213.098 28.6133L213.058 28.8133L212.979 29.2973L212.736 30.9352L212.469 32.9128L204.843 32.8988L203.996 32.8942L202.571 32.8895L201.902 32.8849L200.812 32.8709L200.302 32.8616L199.51 32.8337L199.144 32.8151L198.61 32.7732L198.376 32.7499L198.065 32.6848L197.934 32.6522L197.814 32.5638L197.775 32.5173L197.806 32.4056L197.842 32.3451L197.99 32.2009Z" fill="#F9F9F9"/>
</svg>
